<?xml version="1.0" encoding="UTF-8"?> <svg xmlns="http://www.w3.org/2000/svg" width="308" height="325" viewBox="0 0 308 325" fill="none"> <g clip-path="url(#clip0)"> <mask id="mask0" mask-type="alpha" maskUnits="userSpaceOnUse" x="-59" y="-52" width="367" height="403"> <rect x="-59" y="-52" width="367" height="403" fill="#C4C4C4"></rect> </mask> <g mask="url(#mask0)"> <path d="M94.9025 239.452C95.6271 239.154 96.4032 239 97.187 239H341C344.314 239 347 241.686 347 245V263.5L341 276.5L82 270L79 246L94.9025 239.452Z" fill="url(#paint0_linear)" stroke="#DCBD6C" stroke-width="2" stroke-linejoin="round"></path> <path d="M76 251C76 247.686 78.6863 245 82 245H335C338.314 245 341 247.686 341 251V276H76V251Z" fill="#F1F0ED" stroke="#DCBD6C" stroke-width="2" stroke-linejoin="round"></path> <path d="M264.744 43.7359L260 42C272.602 72.2359 206.507 103.215 204.256 150.801C202.643 184.903 268 241.5 268 241.5L274.5 239C288.064 202.622 289.964 166.487 287.931 128.496C286.318 98.3589 273.817 62.0758 264.744 43.7359Z" fill="#F1F0ED" stroke="#DCBD6C" stroke-width="2"></path> <path d="M259.5 41.5L174.5 11C187 41.5 201.733 101.499 199.5 149.5C197.9 183.9 179.167 223.167 168 241L268 242C281.455 205.305 284.517 165.323 282.5 127C280.9 96.6 268.5 60 259.5 41.5Z" fill="white" stroke="#DCBD6C" stroke-width="2"></path> <path d="M180.5 17L257.5 44.5C266.5 63 277.974 101 279.5 130C281.395 166 278.455 204.805 265 241.5" stroke="#DCBD6C"></path> <path d="M139.5 133C137.5 177.4 154.667 223.833 163.5 241.5H248H252.5C236 230 215 208 202 183C178.489 137.786 174.367 80.2957 196.5 33.5H179C177.333 35.1667 172.7 40.2 167.5 47C161 55.5 142 77.5 139.5 133Z" fill="white" stroke="#DCBD6C" stroke-width="2"></path> <path d="M135.5 133C133.5 177.4 150.667 223.833 159.5 241.5H244H248.5C232 230 211 208 198 183C174.489 137.786 170.367 80.2957 192.5 33.5H175C173.333 35.1667 168.7 40.2 163.5 47C157 55.5 138 77.5 135.5 133Z" fill="white" stroke="#DCBD6C" stroke-width="2"></path> <path d="M188 34C168.5 72.5 159.804 122.5 175.5 160.5C186.257 186.544 223 230 239.5 241.5H235" stroke="#DCBD6C"></path> <path d="M332 254L88.1053 255.043L21.5 282.5L314.972 285L332 254Z" fill="white" stroke="#DCBD6C" stroke-width="2" stroke-linejoin="round"></path> <path d="M21 283L315 285.407V309L21 303.704V283Z" fill="white" stroke="#DCBD6C" stroke-width="2" stroke-linejoin="round"></path> <path d="M22 287L311 289.98V308" stroke="#DCBD6C"></path> </g> </g> <defs> <linearGradient id="paint0_linear" x1="338" y1="261" x2="221" y2="255" gradientUnits="userSpaceOnUse"> <stop stop-color="#F1F0ED"></stop> <stop offset="1" stop-color="white"></stop> </linearGradient> <clipPath id="clip0"> <rect width="308" height="325" fill="white"></rect> </clipPath> </defs> </svg> 