<?xml version="1.0" encoding="UTF-8"?> <svg xmlns="http://www.w3.org/2000/svg" width="654" height="429" viewBox="0 0 654 429" fill="none"> <path d="M1 356L653 315" stroke="#DCBD6C"></path> <g filter="url(#filter0_f)"> <path d="M575.957 387.219L491.116 408.561L508.739 371.594C529.189 368.729 570.729 363 573.29 363C575.851 363 576.135 379.146 575.957 387.219Z" fill="url(#paint0_radial)"></path> </g> <g filter="url(#filter1_f)"> <path d="M443.957 408.406L359.116 424.627L376.739 396.531C397.189 394.354 438.729 390 441.29 390C443.851 390 444.135 402.271 443.957 408.406Z" fill="url(#paint1_radial)"></path> </g> <path d="M312.762 339.657L509.568 348.082L493.984 363.141L293.17 353.775L312.762 339.657Z" fill="white"></path> <path d="M312.762 339.657L509.568 348.082L493.984 363.141L293.17 353.775L312.762 339.657Z" fill="url(#paint2_linear)"></path> <path d="M312.762 339.657L509.568 348.082L493.984 363.141L293.17 353.775L312.762 339.657Z" stroke="#DCBD6C" stroke-width="2" stroke-linejoin="round"></path> <path d="M293.17 353.305L493.984 362.671V407.848L293.17 395.077V353.305Z" fill="white"></path> <path d="M293.17 353.305L493.984 362.671V407.848L293.17 395.077V353.305Z" fill="url(#paint3_linear)"></path> <path d="M293.17 353.305L493.984 362.671V407.848L293.17 395.077V353.305Z" stroke="#DCBD6C" stroke-width="2" stroke-linejoin="round"></path> <path d="M289 358L490 366.071V405L289 393.996V358Z" fill="white"></path> <path d="M289 358L490 366.071V405L289 393.996V358Z" fill="url(#paint4_linear)"></path> <path d="M289 358L490 366.071V405L289 393.996V358Z" stroke="#DCBD6C" stroke-linejoin="round"></path> <path d="M509.567 348.082L493.538 363.141L493.983 408.318L508.677 388.129L509.567 348.082Z" fill="#F1F0ED"></path> <path d="M509.567 348.082L493.538 363.141L493.983 408.318L508.677 388.129L509.567 348.082Z" fill="url(#paint5_linear)"></path> <path d="M509.567 348.082L493.538 363.141L493.983 408.318L508.677 388.129L509.567 348.082Z" stroke="#DCBD6C" stroke-width="2" stroke-linejoin="round"></path> <path d="M473.347 46L486.349 49.9263V348.328L474.566 356.181L473.347 46Z" fill="#F1F0ED" stroke="#DCBD6C" stroke-width="2" stroke-linejoin="round"></path> <path d="M320.104 46H475.204V356.181L320.104 350.782V46Z" fill="white" stroke="#DCBD6C" stroke-width="2" stroke-linejoin="round"></path> <path d="M321.5 49H472.204V356.5" stroke="#DCBD6C" stroke-linejoin="round"></path> <g filter="url(#filter2_f)"> <ellipse cx="334.034" cy="208.995" rx="55.7248" ry="108.199" fill="#C4C4C4" fill-opacity="0.35"></ellipse> </g> <path d="M182.5 358.5L377.686 364.56L361.432 379.42L152 370.178L182.5 358.5Z" fill="white"></path> <path d="M182.5 358.5L377.686 364.56L361.432 379.42L152 370.178L182.5 358.5Z" fill="url(#paint6_linear)"></path> <path d="M182.5 358.5L377.686 364.56L361.432 379.42L152 370.178L182.5 358.5Z" stroke="#DCBD6C" stroke-width="2" stroke-linejoin="round"></path> <path d="M198.438 261.563C198.438 285.339 320.568 372.919 320.568 372.919L332.642 364.56C337.131 338.091 348.895 296.855 347.502 258.777C346.109 220.698 335.892 137.111 341.465 113.892C345.041 98.991 349.669 86.1845 352.61 78.5998C352.61 78.5998 346.565 77.1328 335.892 78.5998C302.457 83.1953 248.59 67.0584 224.443 65.5491C212.555 64.8062 198.747 73.3369 190.079 78.5998C201.224 97.1747 208.654 131.631 208.654 139.433C208.654 149.185 198.438 231.843 198.438 261.563Z" fill="#F1F0ED" stroke="#DCBD6C" stroke-width="2" stroke-linejoin="round"></path> <path d="M183.113 261.515C183.113 294 189.924 342.625 193.33 368.321L320.568 372.964C325.057 346.495 332.177 307.998 332.177 258.728C332.177 209.459 320.568 137.063 326.14 113.844C329.717 98.9428 334.344 86.1364 337.285 78.5516C330.32 81.8022 309.98 84.1241 299.207 84.1241C285.74 84.1241 244.411 67.5227 220.263 66.0135C208.375 65.2705 188.067 73.2887 179.398 78.5516C190.543 97.1265 193.33 131.583 193.33 139.385C193.33 163.951 183.113 222.286 183.113 261.515Z" fill="white"></path> <path d="M183.113 261.515C183.113 294 189.924 342.625 193.33 368.321L320.568 372.964C325.057 346.495 332.177 307.998 332.177 258.728C332.177 209.459 320.568 137.063 326.14 113.844C329.717 98.9428 334.344 86.1364 337.285 78.5516C330.32 81.8022 309.98 84.1241 299.207 84.1241C285.74 84.1241 244.411 67.5227 220.263 66.0135C208.375 65.2705 188.067 73.2887 179.398 78.5516C190.543 97.1265 193.33 131.583 193.33 139.385C193.33 163.951 183.113 222.286 183.113 261.515Z" fill="url(#paint7_linear)"></path> <path d="M183.113 261.515C183.113 294 189.924 342.625 193.33 368.321L320.568 372.964C325.057 346.495 332.177 307.998 332.177 258.728C332.177 209.459 320.568 137.063 326.14 113.844C329.717 98.9428 334.344 86.1364 337.285 78.5516C330.32 81.8022 309.98 84.1241 299.207 84.1241C285.74 84.1241 244.411 67.5227 220.263 66.0135C208.375 65.2705 188.067 73.2887 179.398 78.5516C190.543 97.1265 193.33 131.583 193.33 139.385C193.33 163.951 183.113 222.286 183.113 261.515Z" stroke="#DCBD6C" stroke-width="2" stroke-linejoin="round"></path> <path d="M208 67C236.737 67 276 87.1241 295.206 87.1241C307 87.1241 326.319 84.8022 333.285 81.5516C330.344 89.1364 325.716 98.9428 322.14 113.844C316.568 137.063 328.177 209.459 328.177 258.729C328.177 307.998 321.057 346.495 316.568 372.964" stroke="#DCBD6C" stroke-linejoin="round"></path> <path d="M152 369.714L361.432 378.956V423.536L152 410.934V369.714Z" fill="white"></path> <path d="M152 369.714L361.432 378.956V423.536L152 410.934V369.714Z" fill="url(#paint8_linear)"></path> <path d="M152 369.714L361.432 378.956V423.536L152 410.934V369.714Z" stroke="#DCBD6C" stroke-width="2" stroke-linejoin="round"></path> <path d="M154 373L358 381.929V421L154 408.825V373Z" fill="white"></path> <path d="M154 373L358 381.929V421L154 408.825V373Z" fill="url(#paint9_linear)"></path> <path d="M154 373L358 381.929V421L154 408.825V373Z" stroke="#DCBD6C" stroke-linejoin="round"></path> <path d="M377.686 364.56L360.968 379.42L361.432 424L377.686 407V364.56Z" fill="#F1F0ED"></path> <path d="M377.686 364.56L360.968 379.42L361.432 424L377.686 407V364.56Z" fill="url(#paint10_linear)"></path> <path d="M377.686 364.56L360.968 379.42L361.432 424L377.686 407V364.56Z" stroke="#DCBD6C" stroke-width="2" stroke-linejoin="round"></path> <path d="M224.751 178.125L224.771 177.027C223.302 176.981 222.153 176.57 221.324 175.794C220.503 175.018 220.104 174.023 220.126 172.809L220.126 172.795C220.148 171.591 220.583 170.621 221.431 169.885C222.28 169.139 223.443 168.761 224.922 168.749L224.94 167.723L226.544 167.753L226.526 168.778C228.003 168.844 229.152 169.26 229.972 170.026C230.802 170.793 231.206 171.783 231.184 172.996L231.183 173.011C231.161 174.215 230.722 175.194 229.864 175.949C229.016 176.695 227.853 177.064 226.375 177.056L226.355 178.154L224.751 178.125ZM229.514 172.98L229.515 172.966C229.528 172.215 229.274 171.594 228.753 171.102C228.231 170.611 227.471 170.356 226.471 170.338L226.377 175.496C227.368 175.514 228.133 175.292 228.672 174.829C229.219 174.367 229.5 173.751 229.514 172.98ZM221.795 172.84L221.795 172.854C221.781 173.615 222.03 174.236 222.543 174.718C223.057 175.189 223.817 175.439 224.825 175.467L224.919 170.31C223.902 170.311 223.128 170.537 222.598 170.99C222.077 171.443 221.809 172.06 221.795 172.84Z" fill="#DCBD6C"></path> <path d="M231.576 178.105L235.778 167.993L237.264 168.02L241.095 178.278L239.4 178.248L238.518 175.789L234.202 175.71L233.219 178.135L231.576 178.105ZM234.818 174.146L237.96 174.204L236.456 170.13L234.818 174.146Z" fill="#DCBD6C"></path> <path d="M242.66 178.307L242.844 168.194L244.552 168.225L247.243 173.058L250.107 168.327L251.815 168.358L251.631 178.47L250.027 178.441L250.159 171.189L247.191 175.904L247.139 175.903L244.369 171.112L244.238 178.336L242.66 178.307Z" fill="#DCBD6C"></path> <path d="M261.934 178.658L260.33 178.629L260.464 171.319L255.375 178.539L253.98 178.513L254.164 168.4L255.768 168.43L255.639 175.552L260.58 168.517L262.118 168.545L261.934 178.658Z" fill="#DCBD6C"></path> <path d="M269.031 168.599L272.77 178.856L270.984 178.823L268.243 171.041L265.234 178.718L263.499 178.687L267.597 168.573L269.031 168.599Z" fill="#DCBD6C"></path> <path d="M282.295 179.029L280.692 179L280.825 171.69L275.737 178.91L274.341 178.884L274.526 168.771L276.129 168.801L276 175.923L280.941 168.888L282.48 168.916L282.295 179.029Z" fill="#DCBD6C"></path> <path d="M291.908 169.088L291.723 179.201L290.119 179.172L290.184 175.647L288.28 175.612L285.895 179.095L283.965 179.06L286.563 175.349C285.889 175.135 285.352 174.769 284.953 174.251C284.562 173.723 284.374 173.065 284.389 172.275L284.389 172.261C284.408 171.192 284.749 170.379 285.411 169.822C286.074 169.266 286.974 168.998 288.113 169.019L291.908 169.088ZM290.274 170.677L287.94 170.634C287.34 170.624 286.873 170.76 286.537 171.042C286.201 171.325 286.029 171.736 286.019 172.276L286.019 172.29C286.009 172.83 286.171 173.252 286.504 173.556C286.847 173.861 287.313 174.019 287.904 174.03L290.212 174.072L290.274 170.677Z" fill="#DCBD6C"></path> <path d="M216.722 194.694L215.118 194.665L215.251 187.355L210.163 194.575L208.768 194.549L208.952 184.437L210.556 184.466L210.426 191.588L215.367 184.554L216.906 184.582L216.722 194.694Z" fill="#DCBD6C"></path> <path d="M218.874 194.734L219.013 187.106L220.669 187.136L222.716 190.728L224.893 187.213L226.536 187.243L226.397 194.871L224.846 194.842L224.938 189.786L222.668 193.372L222.629 193.371L220.504 189.734L220.412 194.762L218.874 194.734Z" fill="#DCBD6C"></path> <path d="M229.717 194.931L227.904 194.898L229.807 192.144C229.314 191.961 228.928 191.67 228.649 191.27C228.369 190.87 228.234 190.386 228.245 189.817L228.245 189.803C228.26 188.984 228.519 188.363 229.022 187.938C229.535 187.505 230.225 187.3 231.094 187.326L234.393 187.386L234.254 195.014L232.69 194.985L232.737 192.385L231.446 192.361L229.717 194.931ZM232.804 188.73L231.135 188.7C230.726 188.692 230.402 188.792 230.164 189C229.925 189.198 229.803 189.48 229.796 189.846L229.796 189.86C229.79 190.217 229.897 190.503 230.12 190.719C230.35 190.935 230.67 191.047 231.079 191.054L232.761 191.085L232.804 188.73Z" fill="#DCBD6C"></path> <path d="M244.674 195.377C243.292 195.352 242.162 194.826 241.285 193.798C240.408 192.77 239.983 191.534 240.009 190.09L240.01 190.061C240.036 188.616 240.511 187.391 241.433 186.387C242.365 185.383 243.517 184.893 244.89 184.918C246.273 184.943 247.402 185.47 248.279 186.497C249.156 187.525 249.581 188.761 249.555 190.206L249.554 190.235C249.528 191.679 249.049 192.904 248.118 193.908C247.195 194.912 246.047 195.402 244.674 195.377ZM242.519 192.65C243.098 193.354 243.834 193.714 244.73 193.731C245.625 193.747 246.366 193.419 246.952 192.745C247.547 192.072 247.854 191.235 247.872 190.233L247.872 190.204C247.891 189.202 247.611 188.349 247.032 187.645C246.462 186.941 245.73 186.581 244.834 186.565C243.939 186.548 243.194 186.877 242.599 187.55C242.013 188.223 241.711 189.061 241.692 190.062L241.692 190.091C241.674 191.093 241.949 191.946 242.519 192.65Z" fill="#DCBD6C"></path> <path d="M253.032 195.356L253.142 189.288L250.691 189.244L250.719 187.683L257.2 187.802L257.172 189.362L254.72 189.317L254.61 195.385L253.032 195.356Z" fill="#DCBD6C"></path> <path d="M262.674 195.532L262.719 193.076C262.107 193.238 261.567 193.315 261.097 193.306C259.228 193.272 258.311 192.307 258.346 190.409L258.393 187.823L259.958 187.852L259.913 190.279C259.904 190.789 260.015 191.157 260.245 191.383C260.476 191.599 260.844 191.712 261.348 191.721C261.809 191.73 262.275 191.656 262.748 191.501L262.813 187.904L264.391 187.933L264.252 195.56L262.674 195.532Z" fill="#DCBD6C"></path> <path d="M269.37 195.827C268.362 195.809 267.525 195.427 266.861 194.683C266.205 193.929 265.887 192.97 265.909 191.804L265.909 191.775C265.93 190.658 266.264 189.725 266.912 188.976C267.561 188.217 268.372 187.846 269.346 187.864C270.389 187.883 271.19 188.293 271.749 189.093C272.318 189.883 272.591 190.862 272.57 192.027C272.568 192.123 272.556 192.287 272.535 192.518L267.476 192.425C267.551 193.043 267.764 193.524 268.115 193.868C268.465 194.211 268.901 194.388 269.422 194.397C270.092 194.41 270.719 194.118 271.304 193.521L272.213 194.448C271.465 195.388 270.518 195.848 269.37 195.827ZM267.484 191.269L271.017 191.334C270.976 190.745 270.806 190.261 270.509 189.879C270.212 189.498 269.811 189.303 269.307 189.294C268.82 189.285 268.412 189.461 268.084 189.821C267.764 190.181 267.564 190.664 267.484 191.269Z" fill="#DCBD6C"></path> <path d="M277.266 195.971C276.249 195.953 275.408 195.557 274.744 194.783C274.08 194.001 273.758 193.06 273.778 191.962L273.778 191.933C273.798 190.835 274.155 189.903 274.847 189.135C275.548 188.367 276.411 187.993 277.437 188.011C278.523 188.031 279.433 188.486 280.164 189.376L279.152 190.528C278.616 189.883 278.03 189.554 277.396 189.542C276.831 189.532 276.353 189.76 275.962 190.224C275.571 190.689 275.369 191.259 275.357 191.933L275.356 191.962C275.344 192.646 275.524 193.227 275.898 193.706C276.281 194.185 276.772 194.43 277.372 194.441C277.998 194.453 278.599 194.15 279.175 193.535L280.108 194.592C279.726 195.048 279.315 195.397 278.876 195.639C278.437 195.872 277.9 195.983 277.266 195.971Z" fill="#DCBD6C"></path> <path d="M283.236 195.906L283.347 189.839L280.895 189.794L280.924 188.234L287.404 188.352L287.376 189.912L284.924 189.868L284.814 195.935L283.236 195.906Z" fill="#DCBD6C"></path> <path d="M288.68 196.006L288.819 188.378L292.326 188.442C293.065 188.455 293.645 188.639 294.064 188.994C294.484 189.338 294.688 189.824 294.677 190.45L294.676 190.464C294.662 191.264 294.291 191.821 293.563 192.135C294.47 192.469 294.916 193.084 294.899 193.98L294.899 193.995C294.887 194.678 294.634 195.199 294.14 195.556C293.655 195.913 293.009 196.084 292.2 196.07L288.68 196.006ZM290.313 191.57L291.956 191.6C292.338 191.607 292.627 191.525 292.821 191.355C293.015 191.186 293.115 190.951 293.121 190.653L293.121 190.638C293.126 190.369 293.034 190.145 292.846 189.969C292.658 189.792 292.386 189.705 292.029 189.708L290.347 189.677L290.313 191.57ZM290.29 192.798L290.255 194.763L292.132 194.797C292.941 194.812 293.351 194.496 293.363 193.851L293.363 193.836C293.368 193.528 293.26 193.285 293.037 193.108C292.823 192.921 292.512 192.829 292.103 192.831L290.29 192.798Z" fill="#DCBD6C"></path> <path d="M299.73 196.38C298.687 196.361 297.825 195.965 297.143 195.192C296.462 194.408 296.131 193.468 296.151 192.37L296.151 192.341C296.172 191.233 296.541 190.301 297.259 189.543C297.977 188.776 298.858 188.402 299.901 188.421C300.953 188.44 301.82 188.841 302.501 189.624C303.183 190.398 303.513 191.338 303.493 192.446L303.493 192.475C303.473 193.563 303.104 194.491 302.385 195.258C301.667 196.025 300.782 196.4 299.73 196.38ZM299.784 194.849C300.41 194.861 300.918 194.639 301.309 194.184C301.7 193.719 301.902 193.149 301.914 192.475L301.915 192.446C301.927 191.762 301.738 191.181 301.347 190.701C300.956 190.213 300.456 189.963 299.847 189.952C299.23 189.94 298.726 190.167 298.335 190.632C297.944 191.087 297.742 191.657 297.73 192.341L297.729 192.37C297.717 193.044 297.906 193.625 298.297 194.114C298.689 194.593 299.184 194.839 299.784 194.849Z" fill="#DCBD6C"></path> <defs> <filter id="filter0_f" x="487.116" y="359" width="92.8841" height="53.5615" filterUnits="userSpaceOnUse" color-interpolation-filters="sRGB"> <feFlood flood-opacity="0" result="BackgroundImageFix"></feFlood> <feBlend mode="normal" in="SourceGraphic" in2="BackgroundImageFix" result="shape"></feBlend> <feGaussianBlur stdDeviation="2" result="effect1_foregroundBlur"></feGaussianBlur> </filter> <filter id="filter1_f" x="355.116" y="386" width="92.8841" height="42.6267" filterUnits="userSpaceOnUse" color-interpolation-filters="sRGB"> <feFlood flood-opacity="0" result="BackgroundImageFix"></feFlood> <feBlend mode="normal" in="SourceGraphic" in2="BackgroundImageFix" result="shape"></feBlend> <feGaussianBlur stdDeviation="2" result="effect1_foregroundBlur"></feGaussianBlur> </filter> <filter id="filter2_f" x="178.31" y="0.796082" width="311.45" height="416.398" filterUnits="userSpaceOnUse" color-interpolation-filters="sRGB"> <feFlood flood-opacity="0" result="BackgroundImageFix"></feFlood> <feBlend mode="normal" in="SourceGraphic" in2="BackgroundImageFix" result="shape"></feBlend> <feGaussianBlur stdDeviation="50" result="effect1_foregroundBlur"></feGaussianBlur> </filter> <radialGradient id="paint0_radial" cx="0" cy="0" r="1" gradientUnits="userSpaceOnUse" gradientTransform="translate(502 405.13) rotate(-76.6825) scale(34.7302 91.569)"> <stop stop-color="#C4C4C4" stop-opacity="0.61"></stop> <stop offset="1" stop-color="#C4C4C4" stop-opacity="0"></stop> </radialGradient> <radialGradient id="paint1_radial" cx="0" cy="0" r="1" gradientUnits="userSpaceOnUse" gradientTransform="translate(370 422.019) rotate(-72.7001) scale(26.9022 89.8425)"> <stop stop-color="#C4C4C4" stop-opacity="0.61"></stop> <stop offset="1" stop-color="#C4C4C4" stop-opacity="0"></stop> </radialGradient> <linearGradient id="paint2_linear" x1="382.668" y1="280.833" x2="394.922" y2="361.537" gradientUnits="userSpaceOnUse"> <stop stop-color="white"></stop> <stop offset="1" stop-color="white" stop-opacity="0"></stop> </linearGradient> <linearGradient id="paint3_linear" x1="469.621" y1="263.589" x2="387.306" y2="404.357" gradientUnits="userSpaceOnUse"> <stop stop-color="white"></stop> <stop offset="1" stop-color="white" stop-opacity="0"></stop> </linearGradient> <linearGradient id="paint4_linear" x1="465.614" y1="280.691" x2="400.237" y2="410.557" gradientUnits="userSpaceOnUse"> <stop stop-color="white"></stop> <stop offset="1" stop-color="white" stop-opacity="0"></stop> </linearGradient> <linearGradient id="paint5_linear" x1="558.992" y1="407.894" x2="547.559" y2="419.426" gradientUnits="userSpaceOnUse"> <stop stop-color="white" stop-opacity="0.3"></stop> <stop offset="1" stop-color="white" stop-opacity="0"></stop> </linearGradient> <linearGradient id="paint6_linear" x1="245.339" y1="298.2" x2="256.807" y2="378.026" gradientUnits="userSpaceOnUse"> <stop stop-color="white"></stop> <stop offset="1" stop-color="white" stop-opacity="0"></stop> </linearGradient> <linearGradient id="paint7_linear" x1="50.0004" y1="445" x2="468" y2="155" gradientUnits="userSpaceOnUse"> <stop stop-color="#E1DDD0" stop-opacity="0.38"></stop> <stop offset="1" stop-color="white" stop-opacity="0"></stop> </linearGradient> <linearGradient id="paint8_linear" x1="336.024" y1="281.184" x2="257.062" y2="423.901" gradientUnits="userSpaceOnUse"> <stop stop-color="white"></stop> <stop offset="1" stop-color="white" stop-opacity="0"></stop> </linearGradient> <linearGradient id="paint9_linear" x1="333.25" y1="287.467" x2="257.293" y2="425.877" gradientUnits="userSpaceOnUse"> <stop stop-color="white"></stop> <stop offset="1" stop-color="white" stop-opacity="0"></stop> </linearGradient> <linearGradient id="paint10_linear" x1="429.231" y1="423.581" x2="417.972" y2="435.584" gradientUnits="userSpaceOnUse"> <stop stop-color="white" stop-opacity="0.3"></stop> <stop offset="1" stop-color="white" stop-opacity="0"></stop> </linearGradient> </defs> </svg> 