<?xml version="1.0" encoding="UTF-8"?> <svg xmlns="http://www.w3.org/2000/svg" width="160" height="44" viewBox="0 0 160 44" fill="none"> <path fill-rule="evenodd" clip-rule="evenodd" d="M8.22848 6.22547C8.22848 6.01818 8.2095 5.73198 8.18577 5.58829C8.16205 5.44461 8.13239 5.30916 8.11934 5.28678C8.07307 5.20316 7.34822 5.91572 6.93893 6.44925C6.42168 7.12412 6.11917 7.75776 6.0124 8.39023C5.96613 8.66818 5.97443 9.20643 6.02901 9.46436C6.05392 9.58685 6.11798 9.79296 6.17018 9.92134L6.2639 10.1557L6.2034 10.2311C6.17489 10.2653 6.09832 10.3576 6.01959 10.4526L5.97088 10.5114C5.87715 10.6233 5.70276 10.8471 5.58176 11.0084C5.46075 11.1686 5.35279 11.3111 5.34211 11.3241C5.33025 11.3359 5.33856 11.2734 5.35991 11.1851C5.53074 10.4619 5.52007 9.68343 5.32907 8.98736C5.25788 8.72943 5.10841 8.34783 5.05858 8.29718C5.02062 8.25832 4.91266 8.38787 4.61726 8.82836C4.16764 9.49852 3.84139 10.2547 3.73581 10.8671C3.60413 11.6362 3.76666 12.4453 4.17238 13.0319L4.25543 13.152L4.1012 13.4771C4.01579 13.6561 3.8758 13.9788 3.78801 14.192C3.70022 14.4063 3.62548 14.5853 3.62074 14.5901C3.61718 14.5936 3.62074 14.5111 3.62785 14.4063C3.64921 14.1119 3.58633 13.5171 3.49617 13.1626C3.37279 12.6785 3.15094 12.2027 2.85673 11.7905L2.72979 11.6126L2.67997 11.6786C2.6515 11.7151 2.56489 11.8929 2.48541 12.0743C1.92308 13.3616 1.82343 14.4793 2.19238 15.3862C2.35017 15.7749 2.50439 16.0057 2.82826 16.3367L3.02282 16.5334L2.92317 16.9904C2.84131 17.3673 2.68353 18.26 2.64794 18.5439C2.64438 18.5827 2.62421 18.4449 2.60404 18.2388C2.49015 17.0575 2.13188 16.2295 1.41533 15.5005C1.22433 15.305 1.13417 15.2308 1.114 15.252C1.0701 15.2955 0.930116 15.8703 0.87673 16.2225C0.811482 16.6571 0.7925 17.2 0.830463 17.5451C0.944352 18.5804 1.46753 19.4107 2.30627 19.8877C2.49371 19.9949 2.51032 20.0102 2.49253 20.0738C2.48185 20.1127 2.47354 20.7439 2.47236 21.4789V22.8133L2.41067 22.4517C2.13662 20.8346 1.48414 19.7417 0.40694 19.0927L0.232548 18.9879L0.205262 19.0515C0.191026 19.0868 0.179162 19.4166 0.179162 19.7958C0.179162 20.5425 0.219498 20.87 0.372536 21.354C0.682171 22.3316 1.33822 23.0206 2.24933 23.3256C2.3822 23.3692 2.4949 23.4104 2.50083 23.4163C2.50795 23.4234 2.53286 23.6589 2.55777 23.9416C2.5815 24.2231 2.63726 24.7413 2.68234 25.0923C2.72624 25.4445 2.75945 25.7354 2.75471 25.7401C2.75115 25.7436 2.712 25.6565 2.66929 25.5457C2.30864 24.6177 1.77598 23.8674 1.14366 23.3951C0.797246 23.1372 0.0640872 22.7744 0.00595654 22.8333C-0.0213293 22.8592 0.0498511 23.4434 0.123404 23.8003C0.399822 25.1394 1.01079 26.0286 1.96223 26.4703C2.21374 26.5881 2.53523 26.6799 2.79148 26.7082L2.95638 26.7271L2.97418 26.8425C3.00147 27.0109 3.22924 27.9013 3.34076 28.2723C3.39296 28.4501 3.43329 28.5985 3.42973 28.6021C3.42499 28.6056 3.34432 28.5008 3.24941 28.3665C2.59574 27.449 1.84716 26.9214 0.836395 26.6658C0.714202 26.634 0.5754 26.6093 0.52676 26.6093C0.447275 26.6093 0.441343 26.6152 0.457952 26.6858C0.639462 27.4832 1.0535 28.3583 1.50786 28.9036C2.05595 29.5608 2.86266 29.9447 3.70141 29.9471H3.92918L4.05138 30.2463C4.119 30.41 4.28509 30.7727 4.42151 31.053L4.66946 31.5618L4.4666 31.3757C3.79987 30.7621 3.1545 30.4347 2.33593 30.2945C2.03697 30.2439 1.53396 30.2368 1.53396 30.2839C1.53396 30.3381 1.7736 30.821 1.9385 31.099C2.27305 31.6631 2.79504 32.2497 3.21145 32.53C3.46058 32.6984 3.85682 32.8786 4.13917 32.9516C4.39897 33.0199 4.96842 33.0411 5.30771 32.9964L5.48092 32.9728L5.64107 33.2178C5.79055 33.4486 6.18679 34.0081 6.36593 34.2401L6.44423 34.3426L6.20933 34.1977C5.72412 33.8985 5.24958 33.716 4.73234 33.63C4.50219 33.5923 4.34203 33.5853 3.96122 33.5982C3.69666 33.6065 3.42143 33.6277 3.34788 33.6453L3.21501 33.6771L3.25534 33.7549C3.36449 33.9633 3.76428 34.4474 4.10713 34.7854C4.66353 35.3354 5.12264 35.624 5.72174 35.8042C5.95664 35.876 6.00765 35.8807 6.47744 35.8807C6.94723 35.8796 6.99943 35.8737 7.23433 35.803C7.37313 35.7606 7.51312 35.7241 7.54634 35.7217C7.58904 35.7182 7.76581 35.8725 8.18577 36.2835C8.50371 36.5957 8.74217 36.8406 8.71369 36.8277C8.68641 36.8147 8.5049 36.7511 8.31271 36.6863C7.79547 36.5097 7.53091 36.472 6.94012 36.4897C6.42999 36.505 6.22831 36.5368 5.82851 36.664C5.64759 36.722 5.55343 36.7485 5.54137 36.7959C5.52822 36.8476 5.6129 36.9242 5.78937 37.0939C6.1334 37.426 6.52608 37.7251 6.91639 37.9536C7.95918 38.5661 9.00079 38.6391 9.94986 38.1668L10.2358 38.0243L10.5762 38.261C10.7435 38.3776 11.0164 38.5578 11.2181 38.685C11.3201 38.7698 11.4257 38.8546 11.5336 38.9394L11.2916 38.8982C10.8622 38.824 10.2571 38.8181 9.88105 38.8853C9.73513 38.9112 9.4777 38.9771 9.31042 39.0313C9.02926 39.1208 8.54405 39.3446 8.41118 39.4459C8.35542 39.4871 8.35661 39.4895 8.4527 39.5684C8.61167 39.6979 9.07197 39.9735 9.39703 40.1349C9.76598 40.3174 9.98664 40.4046 10.3153 40.4988C11.4802 40.8345 12.7674 40.4705 13.7485 39.8404C14.7878 39.1726 16.8544 38.3894 19.8368 38.5508C20.8322 38.6044 21.7589 39.0481 22.8441 39.5676C24.1398 40.188 25.6615 40.9165 27.796 41.2184C29.0938 41.4022 30.7452 41.3386 32.5188 41.0241L33.0906 40.732C31.8972 40.6896 30.7796 40.54 30.0844 40.3139C29.8375 40.2334 29.4555 39.989 28.9601 39.6721C27.4109 38.6809 24.7529 36.9804 21.6507 37.3659C21.6507 37.3659 23.212 36.4355 25.9227 36.5603C27.148 36.6173 28.3362 37.1889 29.573 37.784C31.0726 38.5055 32.6438 39.2614 34.4395 39.1762C36.6947 39.069 38.874 37.8453 40.0117 37.0927C39.4945 37.0715 38.6676 36.9996 37.8953 36.8312C37.9201 36.7656 37.8391 36.7396 37.6068 36.665L37.6035 36.664C37.3092 36.5697 37.1206 36.5285 36.8371 36.5061C36.5239 36.3707 36.2664 36.2058 36.1099 36.0068C36.0707 35.9149 36.0351 35.8266 36.0019 35.7406L36.0909 35.7677C36.4776 35.8843 36.639 35.9043 37.066 35.8902C37.537 35.8737 37.8099 35.8042 38.25 35.5898C38.8669 35.2895 39.5965 34.6182 40.0841 33.8997C40.16 33.7878 40.2158 33.6901 40.2087 33.6818C40.2004 33.6748 40.0829 33.65 39.9477 33.6265C39.7614 33.5935 39.5763 33.5864 39.2086 33.597C38.7803 33.6088 38.6783 33.6206 38.3971 33.6948C37.9902 33.8008 37.6758 33.9315 37.3021 34.1529L37.0091 34.3261L37.244 34.0069C37.3733 33.8302 37.5868 33.5264 37.7185 33.3297L37.9582 32.9728L38.129 32.9964C38.2215 33.0093 38.4683 33.0187 38.6771 33.0176C39.1255 33.0152 39.4553 32.9398 39.829 32.7549C40.4091 32.4675 40.9193 31.9858 41.3665 31.3051C41.5397 31.0424 41.898 30.3558 41.898 30.2887C41.898 30.2368 41.414 30.2404 41.096 30.2945C40.3308 30.4253 39.6997 30.7339 39.065 31.2909L38.7934 31.5277L38.9499 31.2026C39.0354 31.0236 39.1955 30.6714 39.307 30.4194L39.5087 29.9601L39.829 29.9424C40.2561 29.9188 40.5847 29.8352 40.9596 29.655C41.6168 29.337 42.1115 28.8058 42.5125 27.9861C42.7332 27.5338 43.0286 26.6658 42.9776 26.6152C42.9479 26.5845 42.5647 26.6646 42.2729 26.7612C41.408 27.0486 40.739 27.5739 40.1351 28.4384C40.0675 28.5338 40.0093 28.6091 40.0058 28.6044C40.0022 28.6009 40.0627 28.3783 40.1398 28.1109C40.217 27.8436 40.3261 27.4243 40.383 27.1805L40.4863 26.7365L40.752 26.6905C41.0901 26.6305 41.3226 26.5516 41.6109 26.3996C42.5932 25.8838 43.1923 24.8414 43.3952 23.2915C43.458 22.8168 43.458 22.8157 43.3489 22.838C43.2054 22.8663 42.6929 23.1207 42.433 23.2938C42.0961 23.5164 41.6168 23.9981 41.3867 24.3421C41.1755 24.6601 40.9442 25.1064 40.7793 25.5104C40.7176 25.6635 40.6666 25.7754 40.6666 25.7601C40.6654 25.7448 40.6903 25.5563 40.72 25.3432C40.7496 25.1288 40.8006 24.686 40.8327 24.3562C40.8396 24.2877 40.8466 24.2183 40.8534 24.1506C40.8793 23.8936 40.9028 23.66 40.9122 23.5836L40.9323 23.4081L41.1767 23.3268C41.6394 23.1725 41.987 22.9558 42.3227 22.6107C42.8613 22.0583 43.1425 21.3882 43.2457 20.4083C43.2789 20.0891 43.267 19.1351 43.2279 19.0385C43.2101 18.9938 43.203 18.9938 43.1211 19.035C43.0725 19.0597 42.9515 19.1375 42.8518 19.2069C41.8363 19.9207 41.2728 20.9347 41.0094 22.5271L40.9596 22.8239V21.4094V19.9925L41.223 19.8323C41.8565 19.4437 42.3215 18.8053 42.5125 18.0633C42.6881 17.3849 42.6501 16.4215 42.4152 15.5417C42.3761 15.3968 42.3322 15.2649 42.3168 15.2508C42.2753 15.2084 41.7651 15.7443 41.5646 16.0411C41.1281 16.69 40.9193 17.3178 40.8303 18.2518L40.7959 18.6122L40.7449 18.2647C40.6891 17.8761 40.5859 17.3225 40.4803 16.8526L40.4091 16.5369L40.6322 16.3096C41.6263 15.2967 41.7284 13.8351 40.9288 12.0237C40.8576 11.8611 40.7781 11.7033 40.7532 11.6727C40.7081 11.6185 40.7034 11.6209 40.5717 11.7999C40.2537 12.2298 39.9619 12.9329 39.867 13.4971C39.8409 13.6537 39.8183 13.9541 39.816 14.1837C39.8136 14.4075 39.8089 14.5889 39.8077 14.5865C39.8053 14.5842 39.7614 14.4758 39.7116 14.3451C39.6618 14.2155 39.523 13.8928 39.4031 13.629L39.1848 13.1485L39.2809 13.0071C39.4269 12.7928 39.5668 12.4818 39.6463 12.1968C39.7436 11.847 39.7685 11.2522 39.7009 10.8695C39.6167 10.3866 39.377 9.76116 39.0781 9.24294C38.8361 8.82365 38.4529 8.28305 38.3983 8.28305C38.3876 8.28305 38.339 8.36785 38.2915 8.47032C37.9392 9.24765 37.8573 10.2511 38.0732 11.1604C38.0946 11.2522 38.11 11.33 38.1065 11.3335C38.1041 11.3359 37.9866 11.1863 37.8467 11.0002C37.7067 10.8129 37.4955 10.5456 37.3769 10.4042L37.1621 10.1487L37.2191 10.0379C37.3081 9.86363 37.4077 9.48674 37.4445 9.18758C37.5501 8.30543 37.1965 7.31963 36.4302 6.36445C36.181 6.05234 35.8121 5.66132 35.5582 5.43989C35.4353 5.33222 35.3742 5.2727 35.3365 5.28499C35.2937 5.29892 35.2811 5.40503 35.2426 5.63776C35.2094 5.84034 35.2011 6.017 35.213 6.36445C35.2403 7.17594 35.4052 7.75423 35.8631 8.63756C35.9746 8.85545 36.0636 9.03329 36.0577 9.03329C36.0517 9.03329 35.9402 8.94143 35.8097 8.82836C35.6792 8.7153 35.4728 8.54569 35.3494 8.45147L35.1442 8.29247L34.9033 8.05927L34.9484 7.94385C35.0196 7.76129 35.0801 7.37616 35.0837 7.07465C35.0979 6.1866 34.6435 5.24203 33.7834 4.36929C33.5023 4.08545 33.0942 3.73447 32.8201 3.54014C32.6865 3.44564 32.6193 3.39263 32.5828 3.40884C32.5416 3.42719 32.5398 3.53413 32.5259 3.7698C32.5141 3.97356 32.5247 4.15023 32.5722 4.49414C32.6837 5.29974 32.9079 5.85683 33.4536 6.68952C33.5889 6.89445 33.6945 7.06287 33.6885 7.06287C33.6838 7.06405 33.564 6.98396 33.4216 6.88385C33.2804 6.78492 33.0562 6.63769 32.9245 6.55643L32.6849 6.40803L32.5971 6.17483C32.1866 5.08538 31.4416 4.321 30.4747 3.99829C30.0643 3.86167 29.4853 3.76627 29.0867 3.77098C28.9183 3.77216 28.9111 3.77452 28.9171 3.83458C28.9349 4.00065 29.1793 4.56245 29.3821 4.89812C29.9824 5.89923 30.8852 6.44218 32.1546 6.56585L32.4773 6.59765L32.9044 6.87561C33.1404 7.02754 33.4358 7.23129 33.5616 7.32787C33.6885 7.42446 33.745 7.46752 33.7424 7.4715C33.7403 7.4747 33.6998 7.45259 33.6268 7.41267C33.1001 7.12176 32.6671 6.96747 32.1949 6.90269C31.8367 6.85323 31.2577 6.91447 30.941 7.03461C30.6385 7.15003 30.3715 7.29607 30.1853 7.44918L30.0334 7.57285L30.1948 7.67414C30.852 8.08872 31.4155 8.28541 32.0288 8.43263C32.7881 8.61283 33.7229 8.50801 34.4798 8.30778L34.6376 8.19943L34.8939 8.43616L34.9033 8.44441L34.8998 8.44676L34.9389 8.47738L34.9733 8.51036L34.9757 8.50683L35.2972 8.76594C35.5155 8.94143 35.7884 9.17463 35.9034 9.28416C36.0191 9.39312 36.0707 9.44172 36.0677 9.44538C36.0653 9.44832 36.0274 9.42213 35.9592 9.37485C35.4657 9.03212 35.0504 8.83425 34.5878 8.72118C34.2366 8.63521 33.6541 8.63638 33.3279 8.72354C33.0147 8.80716 32.7335 8.92494 32.533 9.05803L32.3681 9.16756L32.5176 9.28416C33.1286 9.76352 33.9163 10.2123 34.5119 10.4207C35.2486 10.6787 36.041 10.6975 36.8193 10.4749L37.0198 10.4172L37.1135 10.522C37.4041 10.8494 37.925 11.5549 38.218 12.0225C38.3817 12.2804 38.6652 12.8646 38.6403 12.8893C38.6344 12.8952 38.5502 12.7975 38.4529 12.6726C37.6818 11.6857 36.7184 11.1769 35.7373 11.2405C35.4277 11.2605 35.0837 11.337 34.8547 11.4371L34.6945 11.5078L34.7788 11.6138C34.9366 11.8117 35.6092 12.4394 35.8844 12.6444C36.4124 13.0377 36.8169 13.2403 37.3887 13.3946C37.6355 13.4617 37.6984 13.4665 38.2737 13.4676C38.7589 13.4688 38.9025 13.4606 38.9393 13.4311C38.9808 13.397 38.9998 13.4217 39.1255 13.6891C39.3367 14.1378 39.6048 14.8268 39.7946 15.4133C39.8883 15.7019 39.9655 15.9516 39.9643 15.9692C39.9643 15.9857 39.9073 15.8939 39.8373 15.7631C39.3747 14.9092 38.6925 14.3156 37.9202 14.093C37.6319 14.0106 36.9616 13.987 36.6627 14.0506C36.5488 14.0742 36.4503 14.0989 36.4444 14.106C36.423 14.126 36.7101 14.5665 36.9628 14.901C37.2511 15.2826 37.709 15.749 38.0199 15.9763C38.5608 16.3709 39.1765 16.5864 39.9987 16.6688L40.1576 16.6853L40.2004 16.8702C40.2953 17.2895 40.421 17.9561 40.4685 18.3083C40.4863 18.4308 40.5064 18.5686 40.5135 18.6145C40.523 18.6687 40.4874 18.6204 40.4115 18.4744C39.8753 17.4497 39.0721 16.9232 37.9819 16.882L37.6106 16.8691L37.6711 17.0316C37.9688 17.8278 38.3817 18.5015 38.8728 18.9926C39.3059 19.4248 39.7484 19.691 40.3676 19.8924L40.6512 19.9843L40.669 20.287C40.6784 20.453 40.6879 20.8193 40.6903 21.102L40.6939 21.6155L40.542 21.3105C40.1873 20.5955 39.6795 20.1527 38.9357 19.9089C38.7067 19.8335 38.2939 19.7499 38.2702 19.7735C38.2642 19.7782 38.2892 19.9207 38.3259 20.0903C38.4968 20.8959 38.8183 21.6544 39.2003 22.1514C39.498 22.5412 40.077 23.0159 40.5041 23.2196C40.631 23.2797 40.6381 23.2891 40.6381 23.3963C40.6369 23.5223 40.5752 24.2231 40.5219 24.6801L40.4874 24.9828L40.4246 24.7331C40.2976 24.2325 40.0924 23.8556 39.7567 23.5023C39.4043 23.1289 38.9998 22.8781 38.511 22.7261L38.3876 22.6885L38.4054 23.0842C38.4446 23.944 38.6557 24.7684 38.976 25.3161C39.2169 25.7248 39.6107 26.1629 40.007 26.4585C40.1221 26.5445 40.217 26.6269 40.217 26.6411C40.217 26.707 39.9844 27.6481 39.8812 28.0014C39.7679 28.3887 39.7219 28.5547 39.703 28.5517C39.6879 28.5492 39.6901 28.4385 39.689 28.2464C39.6879 28.0379 39.6736 27.7812 39.657 27.6763C39.6119 27.3913 39.4577 26.972 39.3035 26.7129C39.1184 26.4032 38.6356 25.9226 38.3259 25.7413C38.1493 25.6378 38.0735 25.5862 38.0347 25.6062C37.9998 25.6243 37.995 25.7005 37.9736 25.8496C37.9143 26.263 37.9214 27.3324 37.9855 27.6481C38.1385 28.4054 38.4659 29.0273 39.0294 29.635L39.2442 29.867L39.1243 30.1497C38.8811 30.7233 38.2132 32.0541 38.1836 32.0247C38.1776 32.0176 38.1919 31.9576 38.2156 31.8904C38.4102 31.3498 38.4754 30.6455 38.3746 30.165C38.2405 29.5231 37.8799 28.933 37.3614 28.509C37.263 28.4278 37.1716 28.3701 37.1609 28.3818C37.123 28.4207 36.945 29.0437 36.8869 29.3394C36.7042 30.2792 36.7612 31.0648 37.0649 31.7962C37.1859 32.0883 37.3958 32.4617 37.5714 32.6984L37.696 32.8656L37.4433 33.2402C37.3057 33.4451 37.0518 33.7996 36.881 34.0257C36.5796 34.4238 36.0553 35.0634 36.0292 35.0634C36.0221 35.0634 36.0588 34.9974 36.111 34.9173C36.2463 34.7065 36.4444 34.3037 36.5322 34.0623C36.824 33.2567 36.7873 32.5041 36.4219 31.7668C36.2783 31.477 35.939 31.0083 35.8536 30.9812C35.8168 30.9694 35.6163 31.3651 35.4586 31.7397C35.2237 31.6007 34.8654 31.4382 34.4703 31.3392C34.297 31.233 34.2741 31.1526 34.2409 31.036C34.1994 30.8901 34.1417 30.6874 33.7526 30.3063C33.5853 30.1426 33.4489 29.9977 33.4489 29.986C33.4489 29.8988 34.1643 29.4206 34.3719 29.317C34.328 29.0414 34.2971 28.9342 34.0421 28.6091C33.8404 28.3524 33.7538 28.3017 33.4406 28.2582C33.2098 28.2258 33.129 28.2189 33.089 28.1749C33.0634 28.1468 33.0545 28.1034 33.0337 28.0285C32.9416 27.6952 32.7728 27.6267 32.5638 27.542C32.4442 27.4935 32.3114 27.4396 32.1724 27.3277C32.126 27.2906 32.2364 27.3376 32.3962 27.4056C32.6822 27.5274 33.1265 27.7166 33.1143 27.6116C33.1013 27.5011 33.1442 27.4291 33.1797 27.3694C33.2025 27.3311 33.2223 27.2979 33.2223 27.2629C33.2223 27.2453 33.1606 27.1463 33.0859 27.0439C33.0249 26.9592 32.9783 26.9051 32.943 26.8639C32.8538 26.7602 32.8356 26.739 32.8356 26.5198C32.8344 26.1452 32.8249 26.1335 32.221 25.7848L31.6884 25.4774C31.6872 25.2313 31.6718 25.1159 31.5923 24.7307C31.5228 24.391 31.4341 24.2017 31.3516 24.0257C31.2368 23.7806 31.1339 23.5611 31.1118 22.997C31.5655 23.0965 31.6675 22.8732 31.7433 22.7074C31.8147 22.551 31.8629 22.4456 32.1605 22.7097C32.4776 22.9913 32.4561 22.9135 32.4364 22.8425C32.4281 22.8126 32.4202 22.7839 32.4381 22.7839C32.4464 22.7839 32.4536 22.7073 32.4536 22.6143C32.4536 22.4723 32.4352 22.3117 32.4164 22.1474C32.3614 21.6655 32.3025 21.1504 32.6908 20.9713C32.9214 20.8651 33.2041 20.889 33.4432 20.9092C33.6469 20.9264 33.8189 20.941 33.8997 20.87C34.0693 20.7192 33.9329 20.5531 33.4714 20.3482C32.9557 20.119 32.8225 20.0712 32.7504 19.9767C32.7036 19.9153 32.6826 19.8342 32.5995 19.671L31.9043 19.658C31.606 19.1867 31.5847 18.938 31.5653 18.7104C31.5556 18.5968 31.5464 18.4884 31.5033 18.3601C31.4936 18.3317 31.5844 18.308 31.7129 18.2745C31.931 18.2176 32.2575 18.1324 32.3859 17.9479C32.4891 17.7995 32.2056 17.5946 32.0573 17.5227C31.769 17.3814 31.6943 17.2153 31.6362 16.8997C31.5851 16.6217 31.4238 16.1294 31.3609 16.0635L31.0679 15.8974C31.2506 15.4451 31.2316 15.3874 30.7262 14.8869C30.1948 14.3627 30.1473 14.2909 30.1722 14.0389C30.1934 13.8262 30.116 13.6783 30.0323 13.5184C29.9709 13.401 29.9061 13.2772 29.8744 13.1167C29.7997 12.7351 29.7416 12.5937 29.6123 12.4689C29.3767 12.2445 29.4608 12.2239 29.6056 12.1885C29.6782 12.1708 29.766 12.1494 29.8365 12.0967C30.0218 11.9577 30.2449 11.9113 30.5146 11.8552C30.7679 11.8025 31.0623 11.7413 31.4048 11.5867L31.6528 11.4748C31.4812 11.3331 31.4165 11.3216 31.3506 11.3098C31.2621 11.2939 31.1715 11.2777 30.8164 10.9448L30.4759 10.6257C30.4758 10.5855 30.476 10.5463 30.4761 10.508C30.4775 10.0335 30.4785 9.7022 30.0832 9.43845C29.5245 9.06627 29.407 8.95438 29.343 8.73414C29.291 8.55802 28.0679 8.32981 27.1004 8.14931C26.5216 8.0413 26.0343 7.95038 25.9441 7.89792C25.8996 7.87188 25.9152 7.75198 25.9477 7.50134C25.9828 7.23049 26.0377 6.80697 26.058 6.18425C26.0841 5.41398 26.0188 4.91107 25.8883 4.35516C25.6131 3.18327 24.6617 1.63096 23.2962 1.62625C22.2154 1.62154 21.1323 2.66623 21.0315 3.61669C20.9832 4.06804 20.9088 4.36318 20.8502 4.59547C20.7993 4.79717 20.7604 4.95149 20.761 5.11954C20.7623 5.45853 20.888 5.70217 21.0117 5.94187C21.2133 6.33261 21.4094 6.71289 21.0528 7.47863C20.7966 8.03218 20.6495 8.10992 20.3564 7.85081C19.8143 7.37381 18.8818 5.30681 18.7715 4.34221C18.7466 4.11489 18.781 4.08309 19.0788 4.05718C19.5037 4.02226 19.4308 3.8324 19.2859 3.4546C19.2451 3.34827 19.1986 3.22706 19.1559 3.09023C19.004 2.60498 18.9755 2.57083 18.5449 2.35176C18.3506 2.25244 18.2686 2.2192 18.2468 2.16274C18.2283 2.11475 18.2533 2.04999 18.2898 1.91363C18.399 1.50729 18.38 1.37303 18.157 0.964338C17.8616 0.424916 17.4535 -0.163973 16.9837 0.0421379C16.4012 0.297716 16.0227 1.94778 16.2897 2.66034C16.3774 2.8941 16.5725 3.23854 16.7679 3.58334C16.924 3.85872 17.0801 4.13433 17.1818 4.35398C17.8616 5.82149 18.1119 6.28907 18.7786 7.34083C18.8588 7.46761 18.9312 7.57995 18.9957 7.68C19.2051 8.00472 19.331 8.20003 19.3682 8.33958L21.7243 14.5806C21.8322 14.4935 21.92 14.4369 21.9533 14.4464C22.0846 14.4862 22.1987 14.5132 22.2967 14.5364C22.5349 14.5927 22.6776 14.6265 22.7398 14.7667C22.9664 15.2826 23.2736 16.9868 22.824 17.2966C22.7706 16.6429 22.5346 15.3038 22.5025 15.2673C22.4824 15.2437 21.6372 14.9926 21.0796 14.8289L19.0241 9.52313L19.2282 8.64581C19.1784 8.68114 19.1167 8.71765 19.0432 8.75887C18.7395 8.93083 18.5129 9.12045 18.4108 9.2877C18.1879 9.65466 18.1749 9.70249 18.0733 10.0769C18.0122 10.3021 17.919 10.6454 17.7287 11.2475C17.5312 11.8744 17.2008 12.4476 16.8733 13.016C16.5694 13.5433 16.268 14.0664 16.0773 14.6242C15.9606 14.9665 15.904 15.0903 15.8607 15.185C15.786 15.3483 15.7508 15.4253 15.515 16.3885C15.3038 17.2471 15.9092 18.4751 16.6946 19.8625C16.6973 19.8672 16.7033 19.8796 16.7124 19.8982C16.8039 20.0846 17.2038 20.8998 17.6267 20.9748C17.7548 20.996 18.3385 21.0207 18.5022 20.8865C18.4713 22.99 17.3977 26.5881 16.5139 29.4124C17.606 31.4079 18.8829 32.0121 20.1405 32.6072C20.1848 32.6281 20.2291 32.6491 20.2734 32.6701C22.1739 33.5699 25.7175 34.3426 25.7175 34.3426L25.0864 34.6347C23.2476 34.3037 21.143 33.7808 19.7609 33.1577C17.4665 32.1236 14.0415 29.7186 14.0617 25.647C14.0663 24.7158 14.0978 23.912 14.1258 23.1935C14.2205 20.7709 14.2773 19.3194 13.1399 17.2283C12.4388 15.941 11.2833 15.5309 10.3224 15.6451H10.3069C9.0957 15.6451 8.12883 16.7477 8.12883 17.9656C8.12883 19.1834 9.11112 20.1704 10.3224 20.1704C10.8835 20.1704 11.396 19.9584 11.7828 19.6086C11.9358 20.5037 12.0248 22.0984 11.1315 23.4835C11.0518 23.6068 10.9696 23.7336 10.8853 23.8634C9.58136 25.8716 7.79087 28.6292 7.82987 31.417C7.71598 31.172 7.61277 30.9753 7.58667 30.9753C7.5404 30.9753 7.27466 31.3098 7.12518 31.5571C6.85233 32.007 6.7159 32.4911 6.7159 33.0152C6.7159 33.6418 6.90097 34.2283 7.30551 34.8843C7.36838 34.9856 7.40753 35.061 7.3933 35.0528C7.35059 35.0257 6.7942 34.3437 6.5249 33.9881C6.38491 33.802 6.15001 33.4722 6.00291 33.2531C5.73598 32.8597 5.73479 32.8562 5.78818 32.7985C5.89495 32.6831 6.16306 32.2473 6.28051 31.9964C6.70285 31.1001 6.76454 30.1532 6.47626 29.0167C6.4205 28.7976 6.29475 28.4089 6.26983 28.3818C6.24492 28.3547 5.92342 28.6186 5.76683 28.7941C5.44651 29.1556 5.21874 29.562 5.09892 29.9919C5.03129 30.2357 5.02299 30.3134 5.0218 30.6973C5.0218 31.1473 5.074 31.477 5.2045 31.8539C5.23534 31.9411 5.25551 32.0176 5.24958 32.0235C5.21874 32.0541 4.58879 30.7998 4.3361 30.2027L4.19137 29.8599L4.38711 29.6527C5.02773 28.9719 5.3433 28.3347 5.47261 27.4608C5.54379 26.9791 5.49041 25.5799 5.40143 25.5799C5.36584 25.5799 4.9957 25.8096 4.83911 25.9285C4.61014 26.1028 4.30763 26.4314 4.16052 26.6658C3.87343 27.124 3.74886 27.5857 3.7453 28.2087L3.74293 28.5974L3.68717 28.4443C3.60769 28.2217 3.43211 27.5786 3.31347 27.0674L3.20908 26.6234L3.28619 26.5669C3.73581 26.2465 4.17001 25.7895 4.42626 25.3679C4.77504 24.792 4.99096 23.9769 5.02655 23.0995L5.04434 22.6896L4.93401 22.7191C4.74183 22.7709 4.2495 23.0171 4.05375 23.1607C3.84614 23.315 3.54956 23.6142 3.41787 23.8038C3.23517 24.0688 3.07265 24.461 2.96825 24.885C2.96079 24.9149 2.95545 24.9378 2.94997 24.9378C2.93451 24.9379 2.91792 24.7563 2.84961 24.0382C2.7945 23.4568 2.77627 23.3279 2.83168 23.272C2.8526 23.2509 2.88402 23.2403 2.92791 23.2196C3.40245 22.9911 3.99087 22.4941 4.30407 22.0583C4.67539 21.5401 5.0135 20.6674 5.15823 19.8583C5.17721 19.7487 5.17484 19.7487 4.82487 19.8206C4.28864 19.9313 3.80225 20.1845 3.43685 20.5449C3.18772 20.7911 3.03231 21.0101 2.8591 21.3635L2.73454 21.6179L2.74996 20.8523C2.75945 20.4318 2.77369 20.0632 2.78318 20.0326C2.79504 19.9902 2.86978 19.9537 3.09519 19.8818C3.69073 19.691 4.12374 19.4284 4.5615 18.9926C4.90673 18.6475 5.22585 18.1905 5.48329 17.6699C5.61497 17.4049 5.81902 16.9244 5.81902 16.8832C5.81902 16.8585 5.23653 16.882 5.04909 16.915C4.16645 17.0693 3.50092 17.5757 3.03943 18.4461C2.96588 18.5839 2.9113 18.6663 2.91961 18.6275C2.92673 18.5898 2.95283 18.4143 2.97774 18.2388C3.02401 17.9185 3.14501 17.2683 3.23043 16.8879L3.27551 16.6853L3.46177 16.6677C3.99681 16.617 4.51761 16.4804 4.89961 16.2908C5.57464 15.9551 6.28763 15.2496 6.85233 14.3592C6.93537 14.2285 6.99706 14.1154 6.98994 14.1072C6.98282 14.1001 6.88317 14.0742 6.76928 14.0495C6.47151 13.987 5.80241 14.0118 5.51176 14.0954C4.72996 14.3215 4.08697 14.8857 3.57921 15.7914C3.44634 16.0293 3.44872 16.0199 3.63853 15.4157C3.79038 14.9363 4.11188 14.1095 4.3183 13.6679C4.4227 13.4441 4.45473 13.3993 4.48558 13.4252C4.50693 13.4429 4.67065 13.4665 4.85097 13.4771C5.89732 13.5442 6.70641 13.2898 7.58667 12.6173C7.84648 12.4182 8.57489 11.7328 8.68048 11.5867L8.73505 11.5113L8.6176 11.4513C8.43728 11.3606 7.99121 11.2581 7.69463 11.2393C6.71234 11.1792 5.74666 11.6904 4.97554 12.6773C4.88063 12.7998 4.79759 12.8988 4.79284 12.8988C4.77979 12.8988 4.88656 12.6326 4.98265 12.4265C5.10485 12.165 5.70751 11.2793 6.0729 10.8271C6.24492 10.6127 6.39084 10.4337 6.39677 10.4266C6.4027 10.4207 6.50473 10.4431 6.62455 10.4761C7.8358 10.8082 8.85961 10.6174 10.142 9.81887C10.4493 9.62807 11.0555 9.19936 11.0567 9.17227C11.0591 9.14165 10.753 8.96145 10.5513 8.87547C9.61175 8.4715 8.60099 8.61636 7.59142 9.29947C7.44906 9.39605 7.33279 9.47025 7.33279 9.46554C7.33279 9.44434 7.89393 8.95792 8.20831 8.70823L8.53693 8.44558C8.70895 8.33841 8.85961 8.23241 8.99011 8.13347C9.03045 8.14878 9.09095 8.1747 9.15739 8.20532C10.2975 8.73296 11.3379 8.71176 12.7366 8.13583C13.0711 7.99803 13.7414 7.67414 13.7462 7.64823C13.7533 7.61878 13.4816 7.39147 13.2977 7.27252C12.4388 6.72014 11.4174 6.69658 10.3081 7.20421C10.1515 7.27605 10.0234 7.33023 10.0246 7.32434C10.0282 7.30432 10.664 6.91683 11.014 6.72249L11.383 6.51756L11.7045 6.50696C12.9549 6.4622 13.8624 6.00523 14.5232 5.08656C14.7652 4.75089 14.9147 4.48589 15.0499 4.15023L15.1401 3.92645L14.9254 3.90878C14.8067 3.89818 14.5801 3.89936 14.4224 3.91114C13.2123 3.99947 12.3937 4.42583 11.7472 5.30445C11.5787 5.53294 11.3438 5.94163 11.2442 6.176C11.1908 6.30321 11.1694 6.31969 10.8515 6.49518C10.6664 6.59647 10.4351 6.73192 10.3366 6.79434C10.2381 6.85794 10.1515 6.90858 10.1444 6.9074C10.1373 6.90623 10.2429 6.75547 10.3805 6.57292C11.0164 5.72727 11.3106 5.09363 11.4494 4.27743C11.4838 4.07367 11.5123 3.78747 11.5135 3.64261C11.5146 3.49656 11.5075 3.35758 11.4992 3.33285C11.466 3.24334 10.632 3.82752 10.1409 4.28567C9.51685 4.86632 9.11231 5.44107 8.90232 6.04763C8.81098 6.31381 8.72912 6.84616 8.73861 7.10998C8.74454 7.23483 8.77301 7.44801 8.80148 7.58345L8.85606 7.83078L8.82877 7.85434C8.60811 8.01334 8.33644 8.22887 8.00901 8.51036C7.84411 8.6411 7.63768 8.81305 7.55108 8.89078C7.46566 8.9697 7.38855 9.03329 7.38025 9.03329C7.37313 9.03329 7.45261 8.86841 7.55701 8.66583C8.04341 7.72596 8.22848 7.05345 8.22848 6.22547ZM20.9461 42.7071C22.1454 42.9191 23.3828 43.0522 24.6237 43.0817C24.5418 43.0522 24.4612 43.0228 24.3829 42.991C23.7222 42.7227 23.0719 42.4225 22.4266 42.1247C20.6583 41.3084 18.9278 40.5097 17.126 40.4329C15.98 40.3834 14.9835 40.4741 14.2456 40.586L14.2503 40.5883L14.2076 40.5919C13.8553 40.646 13.5635 40.7049 13.3452 40.7544C13.0687 40.838 12.803 40.9534 12.5373 41.1018C12.3107 41.229 11.8136 41.5871 11.7721 41.6542C13.5491 41.1673 15.7518 41.6696 17.8034 42.1375C18.928 42.3939 20.0072 42.64 20.9461 42.7071ZM8.25695 34.5216L8.27831 34.4356C8.49541 35.1446 8.80148 35.8195 9.21789 36.4673C9.36737 36.7287 9.55718 36.9914 9.78496 37.2481C9.84784 37.3259 9.91308 37.4036 9.98071 37.4813L9.85258 37.3848C9.46939 37.0939 8.86673 36.5627 8.36966 36.0763L7.85241 35.5698L7.95562 35.3507C8.10985 35.021 8.16916 34.8573 8.25695 34.5216ZM35.2403 32.3451C35.0576 32.9681 35.0054 33.5228 35.0872 34.0846C35.0409 33.9747 35.0223 33.8784 35.0048 33.788C34.9846 33.6837 34.9659 33.5872 34.9081 33.4863L34.5593 33.2201C34.5593 33.1707 34.621 33.0823 34.6637 33.0694C34.729 33.0494 35.0967 32.9281 35.0967 32.8279C35.0967 32.6383 35.1548 32.4829 35.2403 32.3451ZM28.4164 32.3121L22.8347 17.5239C22.8335 17.5804 22.83 17.6205 22.8193 17.6381C22.7718 17.7253 22.5217 17.9773 22.3129 18.0939L27.5202 31.5624L28.4164 32.3121ZM59.1624 30.677L59.1038 31.0577C59.2749 31.0669 59.4259 31.0716 59.5569 31.0716C59.6263 31.0716 59.8204 31.0577 60.1426 31.033C60.7621 30.9698 61.3616 30.9406 61.9365 30.9406C62.6347 30.9406 63.8538 30.9652 65.5984 31.013C66.5786 31.1502 67.1643 31.218 67.3631 31.218L67.8069 31.2041C67.8162 31.1163 67.8224 31.0469 67.8224 30.9991C67.8224 30.9298 67.8116 30.8327 67.7931 30.7063C66.238 30.4674 65.3302 30.2871 65.0713 30.1499C64.7014 29.9696 64.5165 29.7061 64.5165 29.3562C64.5165 29.0819 64.609 28.7659 64.8031 28.4053C64.9357 28.1371 65.677 27.1168 67.0271 25.3337C68.0659 23.9635 68.6515 23.2315 68.7825 23.1344C69.231 23.6892 70.0016 24.7234 71.0989 26.2399C72.2009 27.7611 72.9268 28.8337 73.2875 29.4579C73.3661 29.5797 73.4339 29.7353 73.4924 29.9264C73.4138 30.116 73.2982 30.2378 73.1364 30.2963L71.5659 30.603L70.7614 30.677C70.7136 30.7849 70.689 30.862 70.689 30.9113C70.689 30.9698 70.7136 31.0577 70.7614 31.1748C70.894 31.1933 71.0065 31.2041 71.1036 31.2041C71.1806 31.2041 71.5135 31.1748 72.1023 31.1209L74.6283 31.0284L76.057 31.0577C77.0464 31.0669 77.8463 31.1055 78.4566 31.1748C78.7772 31.2134 79.0115 31.2334 79.1533 31.2334L79.6403 31.218L79.6511 31.0716C79.6511 31.0153 79.6412 30.9477 79.6198 30.8684C79.7849 30.8774 79.9302 30.882 80.0549 30.882C80.1967 30.882 80.4309 30.8727 80.753 30.8527C81.2493 30.8327 81.5961 30.8234 81.7964 30.8234C81.9968 30.8234 82.3281 30.8327 82.7951 30.8527C83.8046 30.9298 84.6923 30.9698 85.4537 30.9698C85.6818 30.9698 86.0085 30.9652 86.4385 30.9544C86.4678 30.8573 86.4817 30.7849 86.4817 30.7356C86.4817 30.6678 86.4277 30.5892 86.326 30.5013L84.381 30.3302C84.0481 30.2825 83.7799 30.2285 83.5811 30.17C83.4979 29.9696 83.4532 29.8278 83.4532 29.7415C83.4532 29.5843 83.7214 28.7613 84.2531 27.254L85.5015 23.3055C85.5415 23.1822 85.6186 22.9787 85.745 22.6905C86.1349 22.6412 86.4909 22.6165 86.813 22.6165L87.71 22.6319L90.7539 22.6027C91.0498 22.6027 91.3919 22.6366 91.7819 22.7044C92.665 25.1133 93.172 26.5373 93.2984 26.9658C93.4294 27.4004 93.5758 27.8582 93.7469 28.3359C93.995 29.0588 94.1229 29.5072 94.1229 29.6768C94.1229 29.7646 94.0937 29.8925 94.0351 30.0682C93.8347 30.1561 93.5419 30.2039 93.1612 30.2239L91.6894 30.3256C91.5969 30.3364 91.489 30.3703 91.3765 30.4289C91.3334 30.5553 91.3087 30.6863 91.3087 30.8234C91.3966 30.8727 91.489 30.902 91.5969 30.9113H91.9082C91.9768 30.9113 92.0579 30.9144 92.1533 30.9181C92.1737 30.9189 92.1948 30.9197 92.2165 30.9205C92.3321 30.9298 92.4492 30.9298 92.5663 30.9298L94.2925 30.9159L95.7212 30.9406C96.9449 30.9591 97.8033 30.9698 98.2857 30.9698C98.4136 30.9698 98.6279 30.9652 98.9299 30.9544C98.9592 30.862 98.9731 30.7941 98.9731 30.7494C98.9731 30.6909 98.9546 30.6138 98.9161 30.5121C98.745 30.4289 98.4429 30.3302 98.0037 30.2085C97.8819 30.17 97.6615 30.1114 97.3548 30.0374C97.0435 29.9604 96.8678 29.9018 96.8185 29.8633C96.6582 29.7307 96.4825 29.4579 96.2914 29.0387C96.1018 28.6241 95.7027 27.5083 95.0924 25.6943L93.9318 22.5009L91.7618 16.6059C91.3719 15.6257 91.0899 14.8843 90.9188 14.3865C90.6075 13.451 90.2407 12.5725 89.8322 11.7634L89.3344 11.7495L88.8859 11.7788C88.6024 12.6712 88.3588 13.3878 88.1585 13.918C87.3648 16.0356 86.8623 17.3857 86.6527 17.976L85.3119 21.7303C85.0977 22.3592 84.868 22.9587 84.6291 23.5289C84.5552 23.7092 84.3702 24.2255 84.0728 25.0701C83.4594 26.8502 82.903 28.2296 82.4098 29.199C82.1709 29.6475 81.8843 29.9604 81.5529 30.1407C81.4204 30.2085 80.9873 30.2717 80.2552 30.341C80.0888 30.3503 79.9778 30.3549 79.9084 30.3549H79.5817C79.4754 30.3549 79.3582 30.3934 79.2272 30.472C79.2054 30.5358 79.19 30.5923 79.1805 30.6414C78.4412 30.5654 77.9269 30.4765 77.6413 30.3796C77.3054 30.2671 77.0172 30.0914 76.769 29.8571C76.3699 29.478 75.721 28.6688 74.8132 27.4205L70.558 21.7242L70.3576 21.4714C70.2944 21.3928 70.2451 21.3158 70.2158 21.2418C70.4547 20.8919 70.6936 20.5637 70.9325 20.257C71.3471 19.736 71.6307 19.3754 71.7709 19.175C72.5076 18.1316 73.2736 17.1268 74.0735 16.162C74.8718 15.2003 75.4236 14.5961 75.7303 14.348C75.8813 14.2262 76.262 14.012 76.8661 13.7084L78.6169 13.095L78.5876 12.8114L78.3734 12.7729L76.9247 12.7436H74.2384L71.4503 12.7868L71.4195 12.9393C71.4195 13.021 71.4596 13.1382 71.532 13.2892C71.6014 13.3293 71.6784 13.3585 71.7617 13.3878C71.8927 13.3971 72.3412 13.4849 73.1025 13.6452C73.4539 13.7084 73.6974 13.8117 73.8284 13.9534C73.961 14.0891 74.0288 14.2509 74.0288 14.4312C74.0288 14.5622 73.9902 14.7179 73.9163 14.889C73.8392 15.06 73.0933 16.2098 71.6784 18.3459C71.0404 19.306 70.4409 20.126 69.8845 20.8025L67.417 17.546C66.4029 16.1913 65.7587 15.2203 65.4967 14.63C65.4474 14.5283 65.4227 14.4358 65.4227 14.348C65.4227 14.2601 65.4474 14.1384 65.4905 13.9827C65.5892 13.8748 65.7494 13.7778 65.9791 13.6853C66.2087 13.5913 66.5925 13.5096 67.1442 13.431C67.6898 13.3524 68.0505 13.2799 68.2169 13.2121L68.2308 13.1135C68.2308 13.0457 68.2077 12.9532 68.1583 12.8315C67.9148 12.7929 67.7345 12.7729 67.6174 12.7729C67.4848 12.7729 67.3045 12.7868 67.0764 12.8222C66.6757 12.8946 66.3536 12.9332 66.1209 12.9332C65.3102 12.9332 64.6768 12.9193 64.219 12.89L61.8194 12.7575L60.8638 12.685H60.4785C60.3136 12.685 59.899 12.6989 59.2209 12.7297L59.1916 12.8854C59.1916 12.9917 59.2209 13.1289 59.2795 13.3C59.4398 13.3293 59.7033 13.3585 60.064 13.3878C61.0349 13.4803 61.5759 13.5728 61.693 13.6652C62.0336 13.9288 62.8628 15.0015 64.179 16.8833C65.4967 18.7651 66.8853 20.6515 68.3541 22.5487C67.602 23.6892 66.4707 25.0948 64.9696 26.767C64.3701 27.4251 63.9986 27.8397 63.8538 28.02C63.5317 28.4392 63.0832 28.937 62.5114 29.5165C62.2201 29.8001 61.9858 29.9896 61.8148 30.0821C61.7023 30.1499 61.2399 30.2778 60.4246 30.4628C59.7819 30.5398 59.3581 30.6092 59.1624 30.677ZM89.4993 21.9877C88.2032 21.9877 87.0427 21.9584 86.0286 21.906L85.9407 21.8475C86.0085 21.6949 86.0578 21.55 86.0917 21.4036C86.1256 21.2572 86.2089 21.0029 86.3399 20.6423C86.4724 20.2816 86.5988 19.9164 86.7252 19.5511C86.9887 18.7358 87.4233 17.5953 88.0275 16.1281C88.3881 15.2743 88.5977 14.7919 88.6563 14.6794L88.7981 14.9321L90.0942 18.1856C90.1469 18.3143 90.3559 18.8658 90.7246 19.8387C90.8415 20.1474 90.9745 20.4985 91.1238 20.8919C91.2455 21.2079 91.358 21.55 91.4505 21.9199C90.8895 21.9631 90.2407 21.9877 89.4993 21.9877ZM100.154 12.6265C100.104 12.6265 99.998 12.6403 99.8269 12.6712C99.7684 12.7775 99.7391 12.87 99.7391 12.9486C99.7391 13.0164 99.7637 13.1042 99.813 13.2121C101.226 13.4109 102.114 13.6699 102.465 13.9874C102.675 14.1677 102.781 14.6008 102.781 15.2881V15.5332C102.781 17.3071 102.797 19.0533 102.831 20.7686C102.914 24.4459 102.957 26.844 102.957 27.9707C102.957 28.3267 102.952 28.6041 102.943 28.8045C102.932 29.088 102.928 29.2776 102.928 29.3608C102.928 29.7554 102.88 30.0143 102.788 30.1499C102.718 30.2331 102.533 30.321 102.231 30.4088L100.383 30.7649L100.397 31.1455L100.484 31.1408C100.887 31.1189 101.135 31.1055 101.222 31.1055L102.718 31.1594L105.224 31.0284C105.688 31.0284 106.331 31.0716 107.146 31.1594C107.565 31.2087 107.833 31.2334 107.946 31.2334C108.126 31.2334 108.248 31.2134 108.307 31.1702C108.37 31.1255 108.418 31.0377 108.458 30.8959C108.399 30.8034 108.336 30.7402 108.257 30.7109C108.208 30.6909 107.931 30.6231 107.419 30.5013C106.322 30.2532 105.654 30.0975 105.429 30.0282C105.352 29.7893 105.312 29.4441 105.312 28.9848C105.312 28.7952 105.327 28.5702 105.352 28.3128C105.375 28.0539 105.386 27.8782 105.386 27.7857L105.206 21.2464V20.4481C105.152 19.9703 105.122 18.7605 105.122 16.8155C105.122 16.2837 105.132 15.8892 105.152 15.6303L105.166 15.3421L105.122 13.7284L105.136 13.5281C105.357 13.3585 106.053 13.2707 107.229 13.2707C107.608 13.2707 108.14 13.3524 108.828 13.5142C109.515 13.6745 110.022 13.8748 110.355 14.1137C110.944 14.5329 111.417 15.0939 111.777 15.7952C112.138 16.4933 112.318 17.2193 112.318 17.9606C112.318 18.7265 112.149 19.4478 111.807 20.1352C111.461 20.8226 110.954 21.3497 110.286 21.7242C109.614 22.0956 108.902 22.2806 108.151 22.2806C107.653 22.2806 107.243 22.222 106.921 22.1049C106.781 22.0463 106.644 22.017 106.506 22.017C106.443 22.0463 106.389 22.0956 106.351 22.1588C106.389 22.296 106.497 22.4223 106.678 22.5441C107.106 22.8323 107.487 23.0265 107.824 23.1236C108.156 23.2269 108.57 23.2762 109.066 23.2762C110.837 23.2762 112.246 22.7337 113.294 21.6471C114.342 20.5637 114.864 19.2721 114.864 17.7802C114.864 16.8833 114.626 15.9863 114.143 15.0785C113.665 14.1769 112.983 13.5142 112.095 13.0904C111.212 12.665 110.022 12.4508 108.53 12.4508C107.682 12.4508 106.941 12.4801 106.303 12.5386L103.879 12.685C103.201 12.7236 102.758 12.7436 102.547 12.7436C102.407 12.7436 102.143 12.7344 101.753 12.7189C101.007 12.6558 100.476 12.6265 100.154 12.6265ZM117.337 19.2182C117.102 19.9795 116.985 20.8426 116.985 21.812C116.985 22.9926 117.165 24.0853 117.526 25.084C117.893 26.0889 118.423 27.0012 119.121 27.8289C119.822 28.658 120.505 29.2868 121.169 29.7122C121.828 30.1361 122.655 30.4967 123.646 30.7895C124.636 31.087 125.767 31.2334 127.034 31.2334C128.282 31.2334 129.449 31.0623 130.52 30.7263C131.599 30.3888 132.5 29.9403 133.226 29.3901C134.31 28.5702 135.079 27.8443 135.529 27.2155C136.099 26.4063 136.503 25.5864 136.746 24.7573C136.991 23.9281 137.113 22.8847 137.113 21.6271C137.113 20.5205 136.933 19.4525 136.572 18.4091C136.293 17.62 135.885 16.8833 135.338 16.1959C134.558 15.2064 133.778 14.4698 132.998 13.9966C132.212 13.5188 131.344 13.1489 130.389 12.8808C129.429 12.6126 128.449 12.4801 127.448 12.4801C125.961 12.4801 124.733 12.6357 123.763 12.9532C122.378 13.4109 121.296 13.938 120.516 14.5329C119.735 15.1278 119.067 15.8692 118.517 16.7523C117.961 17.6385 117.571 18.463 117.337 19.2182ZM129.399 30.3703C128.536 30.5938 127.707 30.7063 126.907 30.7063C126.049 30.7063 125.244 30.5553 124.489 30.2578C123.739 29.9557 123.061 29.5211 122.456 28.9555C121.851 28.3899 121.339 27.7364 120.924 27.0059C120.51 26.2692 120.185 25.4015 119.944 24.4012C119.705 23.4025 119.588 22.5056 119.588 21.7149C119.588 20.9597 119.705 20.092 119.944 19.1118C120.185 18.1316 120.53 17.23 120.988 16.4147C121.447 15.601 121.943 14.9722 122.475 14.5283C123.007 14.0845 123.689 13.7238 124.518 13.4356C125.348 13.1489 126.195 13.0072 127.063 13.0072C128.131 13.0072 129.136 13.2168 130.078 13.6313C131.022 14.0459 131.827 14.63 132.496 15.3868C133.158 16.1466 133.641 17.005 133.938 17.9652C134.319 19.2336 134.509 20.5159 134.509 21.812C134.509 22.8508 134.398 23.8896 134.168 24.9283C133.938 25.9717 133.636 26.8209 133.26 27.4836C132.881 28.1464 132.359 28.7366 131.696 29.2529C131.027 29.7754 130.263 30.1453 129.399 30.3703ZM139.097 30.8666L139.083 31.1748C139.263 31.1748 139.482 31.1702 139.736 31.1594C141.077 31.0916 142.053 31.0577 142.661 31.0577C143.022 31.0577 143.437 31.0716 143.901 31.1008C144.622 31.1394 145.226 31.1702 145.708 31.1748C145.825 31.1783 145.926 31.1811 146.013 31.1836C146.156 31.1876 146.259 31.1904 146.323 31.1933C146.431 31.1979 146.519 31.2041 146.596 31.2041C146.699 31.2041 146.781 31.1794 146.835 31.1301C146.874 31.1008 146.894 31.0623 146.894 31.013L146.806 30.8666C146.582 30.7787 146.251 30.6863 145.812 30.5892C145.158 30.4474 144.793 30.3503 144.705 30.2917C144.582 30.2131 144.496 30.0775 144.451 29.8818C144.354 29.4533 144.304 28.5949 144.304 27.2987C144.304 27.0829 144.309 26.8055 144.32 26.4788C144.368 24.8497 144.392 23.9574 144.392 23.7971L144.378 22.803C144.378 22.578 144.417 22.4223 144.5 22.3345C144.577 22.2513 144.728 22.2081 144.949 22.2081C144.996 22.2081 145.241 22.2035 145.675 22.1927C145.904 22.1835 146.186 22.1788 146.519 22.1788C147.137 22.1788 147.811 22.1927 148.537 22.2174C149.269 22.242 149.746 22.2513 149.976 22.2513C150.2 22.2513 150.546 22.2374 150.999 22.2081C153.276 22.0864 154.54 22.0663 154.797 22.1496C154.876 22.1788 154.925 22.2605 154.954 22.3931C154.983 23.9481 154.997 25.1287 154.997 25.9378C154.997 25.9964 154.983 26.3324 154.954 26.9519L154.968 29.0094C154.968 29.3454 154.876 29.5997 154.695 29.7708C154.418 30.0235 154.042 30.1792 153.564 30.2239C152.926 30.2917 152.457 30.4088 152.16 30.5799C152.14 30.6909 152.131 30.7849 152.131 30.8481C152.131 30.9067 152.14 30.9945 152.16 31.1163C153.35 30.9359 154.134 30.8327 154.515 30.808C154.891 30.7787 155.524 30.7649 156.421 30.7649C157.566 30.7649 158.659 30.862 159.698 31.0577C159.777 31.0762 159.84 31.087 159.887 31.087L159.957 31.0716L160 30.902C160 30.7787 159.946 30.6724 159.835 30.5845C159.727 30.4967 159.385 30.3796 158.81 30.2378L157.65 29.9804C157.519 29.9264 157.422 29.8278 157.363 29.6968C157.251 29.4194 157.192 28.9601 157.192 28.3128L157.206 26.3863C157.177 25.3969 157.163 24.6648 157.163 24.2024L157.192 21.8613L157.177 19.3754L157.206 18.0484L157.192 17.0204V15.3806C157.192 15.2743 157.187 15.0492 157.177 14.7086C157.167 14.5961 157.163 14.4898 157.163 14.3973C157.163 13.9874 157.255 13.7146 157.435 13.582C157.654 13.4942 157.922 13.4464 158.249 13.4264C158.752 13.3878 159.186 13.2954 159.547 13.1536C159.585 12.9964 159.61 12.8222 159.619 12.6265C158.319 12.7051 157.386 12.7436 156.821 12.7436C155.948 12.7436 155.08 12.7236 154.213 12.6804L153.271 12.6265C153.183 12.6265 152.978 12.6511 152.658 12.6989C152.658 12.89 152.681 13.0611 152.73 13.2121C152.872 13.2414 153.023 13.2661 153.183 13.2846C154.116 13.4063 154.607 13.4803 154.666 13.5096C154.763 13.5681 154.826 13.6745 154.866 13.8363C154.934 14.1045 154.968 14.9814 154.968 16.4687C154.968 18.0145 154.939 19.6143 154.88 21.2618C154.788 21.2911 154.515 21.3111 154.066 21.3204L150.443 21.4329L149.059 21.3882L146.961 21.4175C146.903 21.4175 146.713 21.4082 146.391 21.3882C145.201 21.3296 144.582 21.2865 144.534 21.2464L144.48 19.9056C144.431 18.2734 144.408 16.6875 144.408 15.1479C144.408 14.3141 144.519 13.7916 144.744 13.5866C144.967 13.3817 145.708 13.226 146.957 13.1243C147.065 13.1042 147.137 13.0657 147.182 13.0118C147.225 12.9578 147.245 12.8854 147.245 12.7868C147.245 12.7097 147.236 12.6265 147.216 12.5386C146.152 12.5679 145.363 12.5972 144.836 12.6357C143.763 12.7097 142.749 12.7436 141.794 12.7436L140.448 12.7297C140.32 12.7297 140.146 12.739 139.917 12.7575C139.907 12.87 139.901 12.9671 139.901 13.0503C139.901 13.1243 139.926 13.2168 139.975 13.3293C140.146 13.3585 140.458 13.3925 140.906 13.431C141.492 13.4757 141.832 13.5281 141.94 13.5866C142.042 13.6406 142.116 13.7377 142.154 13.8702C142.193 14.0058 142.213 14.479 142.213 15.2989C142.213 15.5763 142.198 16.0741 142.17 16.7908C142.139 17.5075 142.125 18.1748 142.125 18.7944V22.6951C142.125 22.7398 142.111 23.1298 142.082 23.8557C142.053 24.5877 142.037 25.1919 142.037 25.6789L142.067 26.8502L142.053 27.8489L142.082 28.9308C142.082 29.2529 142.017 29.5751 141.882 29.8864C141.808 30.0482 141.681 30.1746 141.501 30.2671C141.321 30.3549 140.892 30.4428 140.219 30.5306C139.795 30.5799 139.419 30.6909 139.097 30.8666Z" fill="url(#paint0_linear)"></path> <defs> <linearGradient id="paint0_linear" x1="27.0596" y1="-23.1431" x2="59.8159" y2="81.5347" gradientUnits="userSpaceOnUse"> <stop stop-color="#B09245"></stop> <stop offset="1" stop-color="#867038"></stop> </linearGradient> </defs> </svg> 