<?xml version="1.0" encoding="UTF-8"?> <svg xmlns="http://www.w3.org/2000/svg" width="220" height="310" viewBox="0 0 220 310" fill="none"> <g filter="url(#filter0_f)"> <path d="M193.939 233.953L73.0157 248.893L98.1334 223.016C127.281 221.01 186.488 217 190.137 217C193.787 217 194.193 228.302 193.939 233.953Z" fill="url(#paint0_linear)"></path> </g> <path d="M91.5645 58.4372C91.6121 58.4589 91.6559 58.4798 91.696 58.5C91.6559 58.5202 91.6121 58.5411 91.5645 58.5628C91.0116 58.8142 90.1485 59.0656 89.0035 59.2858C86.7301 59.723 83.5463 60 80 60C76.4537 60 73.2699 59.723 70.9965 59.2858C69.8515 59.0656 68.9884 58.8142 68.4355 58.5628C68.3878 58.5411 68.3441 58.5202 68.304 58.5C68.3441 58.4798 68.3878 58.4589 68.4355 58.4372C68.9884 58.1858 69.8515 57.9344 70.9965 57.7142C73.2699 57.277 76.4537 57 80 57C83.5463 57 86.7301 57.277 89.0035 57.7142C90.1485 57.9344 91.0116 58.1858 91.5645 58.4372Z" fill="white" stroke="#DCBD6C" stroke-width="2"></path> <mask id="path-3-inside-1" fill="white"> <path fill-rule="evenodd" clip-rule="evenodd" d="M98 225H62V241C62 243.761 70.0589 246 80 246C89.9411 246 98 243.761 98 241V225Z"></path> </mask> <path fill-rule="evenodd" clip-rule="evenodd" d="M98 225H62V241C62 243.761 70.0589 246 80 246C89.9411 246 98 243.761 98 241V225Z" fill="white"></path> <path d="M62 225V223H60V225H62ZM98 225H100V223H98V225ZM62 227H98V223H62V227ZM64 241V225H60V241H64ZM80 244C75.1571 244 70.8457 243.452 67.8074 242.608C66.2742 242.183 65.1784 241.712 64.5124 241.275C63.765 240.784 64 240.649 64 241H60C60 242.732 61.2423 243.912 62.3166 244.618C63.4724 245.377 65.0126 245.984 66.7368 246.463C70.2132 247.428 74.9018 248 80 248V244ZM96 241C96 240.649 96.235 240.784 95.4876 241.275C94.8216 241.712 93.7258 242.183 92.1926 242.608C89.1543 243.452 84.8429 244 80 244V248C85.0982 248 89.7868 247.428 93.2632 246.463C94.9874 245.984 96.5276 245.377 97.6834 244.618C98.7577 243.912 100 242.732 100 241H96ZM96 225V241H100V225H96Z" fill="#DCBD6C" mask="url(#path-3-inside-1)"></path> <path fill-rule="evenodd" clip-rule="evenodd" d="M98 24C98.3333 25.6667 98.5 30 96.5 34L92.5 42V47C92.5 49.4 91.1666 52.3333 90.5 53.5L92.5 58L90.5 61C89.1822 83.9296 91.7543 110.332 94.1155 134.57C96.2337 156.313 98.1822 176.314 97 190.5C96.631 194.927 93.8256 198.403 92.119 200.518C91.6257 201.129 91.2242 201.626 91 202V206L95.5 215L93.5 218L96.0488 222.734C97.2965 223.414 98 224.184 98 225C98 227.761 89.9411 230 80 230C70.0589 230 62 227.761 62 225C62 224.085 62.884 223.228 64.4276 222.491L66.8457 218L64.8457 215L69.3457 206V202C69.1214 201.626 68.7199 201.129 68.2266 200.518C66.5201 198.403 63.7146 194.927 63.3457 190.5C62.1635 176.314 64.1119 156.313 66.2301 134.57C68.5913 110.332 71.1635 83.9296 69.8457 61L67.8457 58L69.8457 53.5C69.179 52.3333 67.8457 49.4 67.8457 47V42L63.8457 34C61.8457 30 62.0123 25.6667 62.3457 24H98Z" fill="white"></path> <path d="M98 24L98.9805 23.8039L98.8198 23H98V24ZM92.5 42L91.6055 41.5528L91.5 41.7639V42H92.5ZM90.5 53.5L89.6317 53.0039L89.3805 53.4435L89.5861 53.9061L90.5 53.5ZM92.5 58L93.332 58.5547L93.6373 58.0968L93.4138 57.5939L92.5 58ZM90.5 61L89.6679 60.4453L89.5172 60.6714L89.5016 60.9426L90.5 61ZM94.1155 134.57L95.1108 134.473L94.1155 134.57ZM97 190.5L97.9965 190.583L97 190.5ZM92.119 200.518L91.3409 199.89H91.3409L92.119 200.518ZM91 202L90.1425 201.486L90 201.723V202H91ZM91 206H90V206.236L90.1055 206.447L91 206ZM95.5 215L96.332 215.555L96.6539 215.072L96.3944 214.553L95.5 215ZM93.5 218L92.6679 217.445L92.3347 217.945L92.6195 218.474L93.5 218ZM96.0488 222.734L95.1683 223.208L95.3092 223.469L95.57 223.611L96.0488 222.734ZM64.4276 222.491L64.8588 223.393L65.1533 223.252L65.3081 222.965L64.4276 222.491ZM66.8457 218L67.7261 218.474L68.011 217.945L67.6777 217.445L66.8457 218ZM64.8457 215L63.9512 214.553L63.6917 215.072L64.0136 215.555L64.8457 215ZM69.3457 206L70.2401 206.447L70.3457 206.236V206H69.3457ZM69.3457 202H70.3457V201.723L70.2032 201.486L69.3457 202ZM68.2266 200.518L69.0047 199.89H69.0047L68.2266 200.518ZM63.3457 190.5L62.3491 190.583L63.3457 190.5ZM66.2301 134.57L67.2254 134.667L66.2301 134.57ZM69.8457 61L70.844 60.9426L70.8284 60.6714L70.6777 60.4453L69.8457 61ZM67.8457 58L66.9319 57.5939L66.7083 58.0968L67.0136 58.5547L67.8457 58ZM69.8457 53.5L70.7595 53.9061L70.9651 53.4435L70.7139 53.0039L69.8457 53.5ZM67.8457 42H68.8457V41.7639L68.7401 41.5528L67.8457 42ZM63.8457 34L62.9512 34.4472L62.9512 34.4472L63.8457 34ZM62.3457 24V23H61.5259L61.3651 23.8039L62.3457 24ZM97.3944 34.4472C99.5178 30.2004 99.3457 25.6295 98.9805 23.8039L97.0194 24.1961C97.3209 25.7038 97.4821 29.7996 95.6055 33.5528L97.3944 34.4472ZM93.3944 42.4472L97.3944 34.4472L95.6055 33.5528L91.6055 41.5528L93.3944 42.4472ZM93.5 47V42H91.5V47H93.5ZM91.3682 53.9961C91.7306 53.3619 92.2558 52.2824 92.6928 51.0457C93.1262 49.8191 93.5 48.363 93.5 47H91.5C91.5 48.037 91.207 49.2476 90.8071 50.3793C90.4108 51.5009 89.936 52.4714 89.6317 53.0039L91.3682 53.9961ZM93.4138 57.5939L91.4138 53.0939L89.5861 53.9061L91.5861 58.4061L93.4138 57.5939ZM91.332 61.5547L93.332 58.5547L91.6679 57.4453L89.6679 60.4453L91.332 61.5547ZM95.1108 134.473C92.7477 110.216 90.1858 83.8947 91.4983 61.0574L89.5016 60.9426C88.1785 83.9645 90.7609 110.449 93.1202 134.667L95.1108 134.473ZM97.9965 190.583C99.188 176.285 97.2252 156.177 95.1108 134.473L93.1202 134.667C95.2422 156.449 97.1763 176.342 96.0034 190.417L97.9965 190.583ZM92.8972 201.146C94.5834 199.056 97.5987 195.357 97.9965 190.583L96.0034 190.417C95.6633 194.498 93.0677 197.75 91.3409 199.89L92.8972 201.146ZM91.8574 202.514C92.037 202.215 92.3826 201.783 92.8972 201.146L91.3409 199.89C90.8688 200.474 90.4115 201.037 90.1425 201.486L91.8574 202.514ZM92 206V202H90V206H92ZM96.3944 214.553L91.8944 205.553L90.1055 206.447L94.6055 215.447L96.3944 214.553ZM94.332 218.555L96.332 215.555L94.6679 214.445L92.6679 217.445L94.332 218.555ZM96.9292 222.259L94.3804 217.526L92.6195 218.474L95.1683 223.208L96.9292 222.259ZM95.57 223.611C96.7817 224.272 97 224.788 97 225H99C99 223.58 97.8112 222.556 96.5275 221.856L95.57 223.611ZM97 225C97 225.17 96.8656 225.566 96.0365 226.11C95.2481 226.628 94.0412 227.133 92.4603 227.572C89.3125 228.446 84.9067 229 80 229V231C85.0344 231 89.6287 230.434 92.9956 229.499C94.672 229.033 96.1011 228.461 97.1344 227.782C98.127 227.13 99 226.211 99 225H97ZM80 229C75.0933 229 70.6875 228.446 67.5397 227.572C65.9588 227.133 64.7519 226.628 63.9635 226.11C63.1344 225.566 63 225.17 63 225H61C61 226.211 61.873 227.13 62.8656 227.782C63.8989 228.461 65.328 229.033 67.0044 229.499C70.3713 230.434 74.9656 231 80 231V229ZM63 225C63 224.889 63.0492 224.684 63.3479 224.38C63.6501 224.073 64.1443 223.734 64.8588 223.393L63.9965 221.588C63.1673 221.985 62.4477 222.443 61.9221 222.978C61.3928 223.516 61 224.196 61 225H63ZM65.9652 217.526L63.5472 222.017L65.3081 222.965L67.7261 218.474L65.9652 217.526ZM64.0136 215.555L66.0136 218.555L67.6777 217.445L65.6777 214.445L64.0136 215.555ZM68.4512 205.553L63.9512 214.553L65.7401 215.447L70.2401 206.447L68.4512 205.553ZM68.3457 202V206H70.3457V202H68.3457ZM67.4484 201.146C67.963 201.783 68.3087 202.215 68.4882 202.514L70.2032 201.486C69.9342 201.037 69.4768 200.474 69.0047 199.89L67.4484 201.146ZM62.3491 190.583C62.747 195.357 65.7622 199.056 67.4484 201.146L69.0047 199.89C67.2779 197.75 64.6823 194.498 64.3422 190.417L62.3491 190.583ZM65.2349 134.473C63.1204 156.177 61.1576 176.285 62.3491 190.583L64.3422 190.417C63.1693 176.342 65.1034 156.449 67.2254 134.667L65.2349 134.473ZM68.8473 61.0574C70.1598 83.8947 67.5979 110.216 65.2349 134.473L67.2254 134.667C69.5847 110.449 72.1671 83.9645 70.844 60.9426L68.8473 61.0574ZM67.0136 58.5547L69.0136 61.5547L70.6777 60.4453L68.6777 57.4453L67.0136 58.5547ZM68.9319 53.0939L66.9319 57.5939L68.7595 58.4061L70.7595 53.9061L68.9319 53.0939ZM66.8457 47C66.8457 48.363 67.2194 49.8191 67.6528 51.0457C68.0898 52.2824 68.615 53.3619 68.9774 53.9961L70.7139 53.0039C70.4097 52.4714 69.9349 51.5009 69.5385 50.3793C69.1386 49.2476 68.8457 48.037 68.8457 47H66.8457ZM66.8457 42V47H68.8457V42H66.8457ZM62.9512 34.4472L66.9512 42.4472L68.7401 41.5528L64.7401 33.5528L62.9512 34.4472ZM61.3651 23.8039C61 25.6295 60.8278 30.2004 62.9512 34.4472L64.7401 33.5528C62.8635 29.7996 63.0247 25.7038 63.3263 24.1961L61.3651 23.8039ZM98 23H62.3457V25H98V23ZM99 23H98V25H99V23Z" fill="#DCBD6C"></path> <path d="M92 58C92 59.1046 86.6274 60 80 60C73.3726 60 68 59.1046 68 58" stroke="#DCBD6C"></path> <path d="M91 60C91 61.1046 86.0751 62 80 62C73.9249 62 69 61.1046 69 60" stroke="#DCBD6C"></path> <path d="M91 52C91 53.6569 86.0751 55 80 55C73.9249 55 69 53.6569 69 52" stroke="#DCBD6C"></path> <path d="M92 41C92 42.6569 86.6274 44 80 44C73.3726 44 68 42.6569 68 41" stroke="#DCBD6C"></path> <path d="M93 199C93 200.657 87.1797 202 80 202C72.8203 202 67 200.657 67 199" stroke="#DCBD6C"></path> <path d="M91 202C91 203.657 86.0751 205 80 205C73.9249 205 69 203.657 69 202" stroke="#DCBD6C"></path> <path d="M95 214C95 215.657 88.2843 217 80 217C71.7157 217 65 215.657 65 214" stroke="#DCBD6C"></path> <path d="M94 217C94 218.657 87.9558 220 80.5 220C73.0442 220 67 218.657 67 217" stroke="#DCBD6C"></path> <mask id="path-15-inside-2" fill="white"> <path fill-rule="evenodd" clip-rule="evenodd" d="M161 22V23H160.672C156.974 28.6065 122.492 33 80.5 33C38.508 33 4.02553 28.6065 0.328169 23H0V22V11H80.5H161V22Z"></path> </mask> <path fill-rule="evenodd" clip-rule="evenodd" d="M161 22V23H160.672C156.974 28.6065 122.492 33 80.5 33C38.508 33 4.02553 28.6065 0.328169 23H0V22V11H80.5H161V22Z" fill="#F1F0ED"></path> <path d="M161 23V25H163V23H161ZM160.672 23V21H159.595L159.002 21.8989L160.672 23ZM0.328169 23L1.99779 21.8989L1.40497 21H0.328169V23ZM0 23H-2V25H0V23ZM0 11V9H-2V11H0ZM161 11H163V9H161V11ZM159 22V23H163V22H159ZM161 21H160.672V25H161V21ZM159.002 21.8989C158.851 22.1284 158.324 22.6164 157.028 23.2337C155.798 23.8196 154.109 24.4144 151.965 24.998C147.684 26.1633 141.819 27.224 134.697 28.118C120.468 29.9043 101.436 31 80.5 31V35C101.556 35 120.761 33.899 135.196 32.0869C142.406 31.1817 148.479 30.0928 153.016 28.8575C155.281 28.2408 157.22 27.5725 158.748 26.845C160.209 26.1489 161.568 25.2732 162.341 24.1011L159.002 21.8989ZM80.5 31C59.564 31 40.5316 29.9043 26.3027 28.118C19.181 27.224 13.3155 26.1633 9.03509 24.998C6.89142 24.4144 5.20235 23.8196 3.9723 23.2337C2.67632 22.6164 2.14915 22.1284 1.99779 21.8989L-1.34145 24.1011C-0.568477 25.2732 0.790731 26.1489 2.25224 26.845C3.77967 27.5725 5.7192 28.2408 7.98433 28.8575C12.5215 30.0928 18.5943 31.1817 25.8045 32.0869C40.2391 33.899 59.444 35 80.5 35V31ZM0.328169 21H0V25H0.328169V21ZM2 23V22H-2V23H2ZM2 22V11H-2V22H2ZM0 13H80.5V9H0V13ZM80.5 13H161V9H80.5V13ZM159 11V22H163V11H159Z" fill="#DCBD6C" mask="url(#path-15-inside-2)"></path> <path d="M160 11C160 11.2331 159.815 11.7136 158.809 12.3853C157.849 13.0263 156.369 13.6833 154.366 14.3301C150.376 15.6193 144.549 16.795 137.287 17.7874C122.776 19.7702 102.699 21 80.5 21C58.3012 21 38.2236 19.7702 23.7133 17.7874C16.4508 16.795 10.624 15.6193 6.63351 14.3301C4.63135 13.6833 3.15079 13.0263 2.19081 12.3853C1.18499 11.7136 1 11.2331 1 11C1 10.7669 1.18499 10.2864 2.19081 9.61474C3.15079 8.97369 4.63135 8.31671 6.63351 7.66988C10.624 6.38068 16.4508 5.20501 23.7133 4.21262C38.2236 2.22984 58.3012 1 80.5 1C102.699 1 122.776 2.22984 137.287 4.21262C144.549 5.20501 150.376 6.38068 154.366 7.66988C156.369 8.31671 157.849 8.97369 158.809 9.61474C159.815 10.2864 160 10.7669 160 11Z" fill="white" stroke="#DCBD6C" stroke-width="2"></path> <path d="M156 8.5C156 13.1944 122.197 17 80.5 17C38.8025 17 5 13.1944 5 8.5" stroke="#DCBD6C"></path> <mask id="mask0" mask-type="alpha" maskUnits="userSpaceOnUse" x="63" y="111" width="157" height="199"> <rect x="63" y="111" width="157" height="199" fill="#C4C4C4"></rect> </mask> <g mask="url(#mask0)"> <path d="M105 185H158V294.234L105 262.434V185Z" fill="white" stroke="#DCBD6C" stroke-width="2"></path> <path d="M159 185H169V291.279L159 294.613V185Z" fill="white" stroke="#DCBD6C" stroke-width="2"></path> <path d="M293 135L345 151.5L137 187L84.5 167L293 135Z" fill="white" stroke="#DCBD6C" stroke-width="2" stroke-linejoin="round"></path> <path d="M136.5 187L345 152.5V165.366L136 200.5L136.5 187Z" fill="white" stroke="#DCBD6C" stroke-width="2" stroke-linejoin="round"></path> <path d="M344.5 155L139.5 189.5V200" stroke="#DCBD6C" stroke-linejoin="round"></path> <path d="M136.5 187L84 167V179.866L136 200.5L136.5 187Z" fill="white" stroke="#DCBD6C" stroke-width="2" stroke-linejoin="round"></path> </g> <defs> <filter id="filter0_f" x="69.0157" y="213" width="128.984" height="39.893" filterUnits="userSpaceOnUse" color-interpolation-filters="sRGB"> <feFlood flood-opacity="0" result="BackgroundImageFix"></feFlood> <feBlend mode="normal" in="SourceGraphic" in2="BackgroundImageFix" result="shape"></feBlend> <feGaussianBlur stdDeviation="2" result="effect1_foregroundBlur"></feGaussianBlur> </filter> <linearGradient id="paint0_linear" x1="77.6036" y1="249.266" x2="169.241" y2="208.417" gradientUnits="userSpaceOnUse"> <stop stop-color="#C4C4C4"></stop> <stop offset="1" stop-color="#C4C4C4" stop-opacity="0"></stop> </linearGradient> </defs> </svg> 