<?xml version="1.0" encoding="UTF-8"?> <svg xmlns="http://www.w3.org/2000/svg" width="153" height="284" viewBox="0 0 153 284" fill="none"> <g filter="url(#filter0_f)"> <path d="M148.908 268.176L64.6644 279.62L82.1632 259.798C102.469 258.262 143.717 255.19 146.26 255.19C148.802 255.19 149.085 263.848 148.908 268.176Z" fill="url(#paint0_linear)"></path> </g> <path d="M51.9821 276.042C72.5469 276.042 89.218 271.023 89.218 264.831C89.218 261.35 83.7568 259.162 75.8131 255.19H26.6617C18.2216 258.666 14.7462 261.488 14.7462 264.831C14.7462 271.023 31.4173 276.042 51.9821 276.042Z" fill="white"></path> <path fill-rule="evenodd" clip-rule="evenodd" d="M17.7574 6.64362C18.5379 2.94734 33.34 0 51.4856 0C70.093 0 85.1844 3.09924 85.246 6.9272L97.7942 24.3275C94.9808 26.1479 88.8576 30.9803 86.8717 35.7465L86.7404 36.0611L86.6152 36.3603C83.8473 42.9774 75.7631 62.3035 74.9562 84.8979C73.9632 112.701 74.9562 128.092 81.9068 137.028C88.8575 145.965 95.8083 155.894 95.8083 157.384C95.8083 158.575 93.8223 162.183 92.8294 163.838C95.8083 169.299 101.667 182.406 101.27 191.144C100.773 202.067 94.9359 210.164 91.3399 214.479C87.7359 218.804 84.3064 221.733 81.6209 224.027L81.6208 224.027L81.6206 224.027L81.6192 224.029C80.6059 224.894 79.6986 225.669 78.928 226.394L83.8928 232.352C83.5049 235.455 80.6651 237.331 77.9632 239.116C76.4264 240.131 74.9342 241.116 73.9632 242.282C71.4808 245.261 70.9843 251.218 72.4737 252.708C73.6653 253.899 82.2378 258.5 86.3752 260.651L54.5994 273.286L54.6197 276.042L51.1444 274.66L47.669 276.042L47.6893 273.286L15.9136 260.651C20.0509 258.5 28.6234 253.899 29.815 252.708C31.3044 251.218 30.8079 245.261 28.3256 242.282C27.3545 241.116 25.8623 240.131 24.3255 239.116C21.6236 237.331 18.7838 235.455 18.396 232.352L23.3608 226.394C22.5897 225.669 21.6818 224.893 20.6679 224.027C17.9824 221.733 14.5528 218.804 10.9488 214.479C7.35287 210.164 1.5157 202.067 1.01922 191.144C0.622032 182.406 6.48048 169.299 9.45936 163.838C8.4664 162.183 6.48048 158.575 6.48048 157.384C6.48048 155.894 13.4312 145.965 20.3819 137.028C27.3326 128.092 28.3256 112.701 27.3326 84.8979C26.5256 62.3035 18.4415 42.9774 15.6735 36.3603C15.5821 36.1417 15.4965 35.937 15.4171 35.7465C13.4312 30.9803 7.30793 26.1479 4.49455 24.3275L17.7574 6.64362Z" fill="white"></path> <path fill-rule="evenodd" clip-rule="evenodd" d="M17.7574 6.64362C18.5379 2.94734 33.34 0 51.4856 0C70.093 0 85.1844 3.09924 85.246 6.9272L97.7942 24.3275C94.9808 26.1479 88.8576 30.9803 86.8717 35.7465L86.7404 36.0611L86.6152 36.3603C83.8473 42.9774 75.7631 62.3035 74.9562 84.8979C73.9632 112.701 74.9562 128.092 81.9068 137.028C88.8575 145.965 95.8083 155.894 95.8083 157.384C95.8083 158.575 93.8223 162.183 92.8294 163.838C95.8083 169.299 101.667 182.406 101.27 191.144C100.773 202.067 94.9359 210.164 91.3399 214.479C87.7359 218.804 84.3064 221.733 81.6209 224.027L81.6208 224.027L81.6206 224.027L81.6192 224.029C80.6059 224.894 79.6986 225.669 78.928 226.394L83.8928 232.352C83.5049 235.455 80.6651 237.331 77.9632 239.116C76.4264 240.131 74.9342 241.116 73.9632 242.282C71.4808 245.261 70.9843 251.218 72.4737 252.708C73.6653 253.899 82.2378 258.5 86.3752 260.651L54.5994 273.286L54.6197 276.042L51.1444 274.66L47.669 276.042L47.6893 273.286L15.9136 260.651C20.0509 258.5 28.6234 253.899 29.815 252.708C31.3044 251.218 30.8079 245.261 28.3256 242.282C27.3545 241.116 25.8623 240.131 24.3255 239.116C21.6236 237.331 18.7838 235.455 18.396 232.352L23.3608 226.394C22.5897 225.669 21.6818 224.893 20.6679 224.027C17.9824 221.733 14.5528 218.804 10.9488 214.479C7.35287 210.164 1.5157 202.067 1.01922 191.144C0.622032 182.406 6.48048 169.299 9.45936 163.838C8.4664 162.183 6.48048 158.575 6.48048 157.384C6.48048 155.894 13.4312 145.965 20.3819 137.028C27.3326 128.092 28.3256 112.701 27.3326 84.8979C26.5256 62.3035 18.4415 42.9774 15.6735 36.3603C15.5821 36.1417 15.4965 35.937 15.4171 35.7465C13.4312 30.9803 7.30793 26.1479 4.49455 24.3275L17.7574 6.64362Z" fill="url(#paint1_linear)"></path> <path d="M14.7463 270.581C20.0061 276.526 35.972 280.014 51.9822 280.014C66.8765 280.014 83.2603 276.539 89.2182 270.581C89.7148 269.092 89.5106 268.102 89.2182 265.616C65.4389 265.616 17.2535 265.517 14.7463 265.12C14.5063 267.88 14.7463 270.581 14.7463 270.581Z" fill="white"></path> <path d="M84.4014 6.9507C84.4014 7.07223 84.3452 7.30049 84.0013 7.64141C83.6552 7.98459 83.0918 8.36363 82.2768 8.75461C80.6514 9.53432 78.2352 10.2634 75.1689 10.8856C69.0527 12.1265 60.5582 12.9014 51.1444 12.9014C41.7305 12.9014 33.236 12.1265 27.1198 10.8856C24.0535 10.2634 21.6373 9.53432 20.0119 8.75461C19.1969 8.36363 18.6335 7.98459 18.2874 7.64141C17.9436 7.30049 17.8873 7.07223 17.8873 6.9507C17.8873 6.82918 17.9436 6.60091 18.2874 6.26C18.6335 5.91682 19.1969 5.53778 20.0119 5.1468C21.6373 4.36709 24.0535 3.638 27.1198 3.01584C33.236 1.77487 41.7305 1 51.1444 1C60.5582 1 69.0527 1.77487 75.1689 3.01584C78.2352 3.638 80.6514 4.36709 82.2768 5.1468C83.0918 5.53778 83.6552 5.91682 84.0013 6.26C84.3452 6.60091 84.4014 6.82918 84.4014 6.9507Z" stroke="#DCBD6C" stroke-width="2"></path> <path d="M78.4507 5.95776C78.4507 8.15135 66.4475 9.92959 51.6408 9.92959C36.8342 9.92959 24.831 8.15135 24.831 5.95776" stroke="#DCBD6C"></path> <path d="M97.1617 22.838C97.1617 24.142 95.9802 25.4332 93.6848 26.6379C91.3894 27.8426 88.0249 28.9372 83.7835 29.8593C79.5421 30.7813 74.5068 31.5127 68.9651 32.0117C63.4234 32.5108 57.4839 32.7676 51.4856 32.7676C45.4874 32.7676 39.5478 32.5108 34.0062 32.0117C28.4645 31.5127 23.4292 30.7813 19.1878 29.8593C14.9464 28.9372 11.5819 27.8426 9.28646 26.6379C6.99103 25.4332 5.80958 24.142 5.80958 22.838" stroke="#DCBD6C" stroke-width="2"></path> <path d="M95.331 19.8591C95.331 21.1631 94.2009 22.4543 92.0053 23.659C89.8096 24.8637 86.5914 25.9584 82.5344 26.8804C78.4774 27.8024 73.6611 28.5339 68.3603 29.0329C63.0596 29.5319 57.3783 29.7887 51.6408 29.7887C45.9034 29.7887 40.2221 29.5319 34.9214 29.0329C29.6206 28.5339 24.8043 27.8024 20.7472 26.8804C16.6902 25.9584 13.4721 24.8637 11.2764 23.659C9.08078 22.4543 7.9507 21.1631 7.9507 19.8591" stroke="#DCBD6C"></path> <path d="M95.1758 156.887C95.1758 158.322 94.0457 159.742 91.8501 161.067C89.6544 162.392 86.4362 163.596 82.3792 164.611C78.3222 165.625 73.5059 166.43 68.2051 166.978C62.9044 167.527 57.2231 167.81 51.4856 167.81C45.7482 167.81 40.0669 167.527 34.7661 166.978C29.4654 166.43 24.649 165.625 20.592 164.611C16.535 163.596 13.3168 162.392 11.1212 161.067C8.92557 159.742 7.79549 158.322 7.79549 156.887" stroke="#DCBD6C"></path> <path d="M93.3451 160.859C93.3451 162.424 92.2407 163.973 90.0949 165.419C87.9492 166.865 84.8041 168.178 80.8394 169.285C76.8746 170.391 72.1676 171.269 66.9874 171.868C61.8071 172.466 56.255 172.775 50.6479 172.775C45.0408 172.775 39.4886 172.466 34.3084 171.868C29.1281 171.269 24.4212 170.391 20.4564 169.285C16.4916 168.178 13.3466 166.865 11.2008 165.419C9.0551 163.973 7.9507 162.424 7.9507 160.859" stroke="#DCBD6C" stroke-width="2"></path> <path d="M78.2955 226.394C76.8102 227.565 74.6331 228.629 71.8885 229.525C69.144 230.422 65.8857 231.133 62.2998 231.618C58.7139 232.103 54.8705 232.352 50.9892 232.352C47.1078 232.352 43.2644 232.103 39.6785 231.618C36.0926 231.133 32.8343 230.422 30.0898 229.525C27.3452 228.629 25.1682 227.565 23.6828 226.394" stroke="#DCBD6C" stroke-width="2"></path> <path d="M83.2603 232.352C83.2603 233.656 82.4256 234.947 80.8038 236.152C79.182 237.357 76.8049 238.451 73.8083 239.373C70.8116 240.295 67.2541 241.027 63.3388 241.526C59.4235 242.025 55.2271 242.282 50.9892 242.282C46.7512 242.282 42.5548 242.025 38.6395 241.526C34.7242 241.027 31.1667 240.295 28.17 239.373C25.1734 238.451 22.7963 237.357 21.1745 236.152C19.5527 234.947 18.718 233.656 18.718 232.352" stroke="#DCBD6C"></path> <path d="M83.2603 234.338C83.2603 235.642 82.4256 236.933 80.8038 238.138C79.182 239.343 76.8049 240.437 73.8083 241.359C70.8116 242.281 67.2541 243.013 63.3388 243.512C59.4235 244.011 55.2271 244.268 50.9892 244.268C46.7512 244.268 42.5548 244.011 38.6395 243.512C34.7242 243.013 31.1667 242.281 28.17 241.359C25.1734 240.437 22.7963 239.343 21.1745 238.138C19.5527 236.933 18.718 235.642 18.718 234.338" stroke="#DCBD6C"></path> <path d="M75.8131 255.19C83.7568 259.162 89.218 261.35 89.218 264.831C89.218 271.023 72.5469 276.042 51.9821 276.042C31.4173 276.042 14.7462 271.023 14.7462 264.831C14.7462 261.488 18.2216 258.666 26.6617 255.19" stroke="#DCBD6C" stroke-width="2"></path> <path d="M84.2533 6.45422L97.6582 24.3275C94.8448 26.1479 88.7216 30.9803 86.7357 35.7465C84.2533 41.7042 75.6538 61.5571 74.8202 84.8979C73.8272 112.701 74.8202 128.092 81.7708 137.028C88.7215 145.965 95.6723 155.894 95.6723 157.384C95.6723 158.575 93.6863 162.183 92.6934 163.838C95.6723 169.299 101.531 182.406 101.134 191.144C100.637 202.067 94.7999 210.164 91.2039 214.479C86.2392 220.437 81.6054 223.746 78.792 226.394L83.7568 232.352C83.1483 237.219 76.5054 239.068 73.8272 242.282C71.3448 245.261 70.8483 251.218 72.3377 252.708C73.5293 253.899 82.1018 258.5 86.2392 260.651" stroke="#DCBD6C" stroke-width="2"></path> <path d="M17.8995 6.45422L4.49454 24.3275C7.30792 26.1479 13.4312 30.9803 15.4171 35.7465C17.8995 41.7042 26.499 61.5571 27.3326 84.8979C28.3255 112.701 27.3326 128.092 20.3819 137.028C13.4312 145.965 6.48048 155.894 6.48048 157.384C6.48048 158.575 8.4664 162.183 9.45935 163.838C6.48048 169.299 0.622029 182.406 1.01921 191.144C1.51569 202.067 7.35286 210.164 10.9488 214.479C15.9136 220.437 20.5474 223.746 23.3608 226.394L18.396 232.352C19.0044 237.219 25.6473 239.068 28.3255 242.282C30.8079 245.261 31.3044 251.218 29.815 252.708C28.6234 253.899 20.0509 258.5 15.9136 260.651" stroke="#DCBD6C" stroke-width="2"></path> <path d="M89.2182 265.616C89.5106 268.102 89.7148 269.092 89.2182 270.581C83.2603 276.539 66.8765 280.014 51.9822 280.014C35.972 280.014 20.0061 276.526 14.7463 270.581C14.7463 270.581 14.5063 267.88 14.7463 265.12" stroke="#DCBD6C" stroke-width="2"></path> <defs> <filter id="filter0_f" x="60.6644" y="251.19" width="92.2863" height="32.4299" filterUnits="userSpaceOnUse" color-interpolation-filters="sRGB"> <feFlood flood-opacity="0" result="BackgroundImageFix"></feFlood> <feBlend mode="normal" in="SourceGraphic" in2="BackgroundImageFix" result="shape"></feBlend> <feGaussianBlur stdDeviation="2" result="effect1_foregroundBlur"></feGaussianBlur> </filter> <linearGradient id="paint0_linear" x1="67.8606" y1="279.906" x2="133.584" y2="253.259" gradientUnits="userSpaceOnUse"> <stop stop-color="#C4C4C4"></stop> <stop offset="1" stop-color="#C4C4C4" stop-opacity="0"></stop> </linearGradient> <linearGradient id="paint1_linear" x1="117.176" y1="276.042" x2="13.9085" y2="276.042" gradientUnits="userSpaceOnUse"> <stop stop-color="#F1F0ED"></stop> <stop offset="1" stop-color="white" stop-opacity="0"></stop> </linearGradient> </defs> </svg> 