<?xml version="1.0" encoding="UTF-8"?> <svg xmlns="http://www.w3.org/2000/svg" width="60" height="60" viewBox="0 0 60 60" fill="none"> <circle cx="30" cy="30" r="30" fill="white"></circle> <path d="M47.4397 15.9589C47.2613 15.8561 47.0419 15.8561 46.8634 15.9589L38.9972 20.4537L36.9165 19.9351L36.6368 21.053L38.9418 21.6293C39.0858 21.6663 39.2385 21.6455 39.3676 21.5718L46.5753 17.4508V41.4806L38.9994 45.8077L20.7841 41.2553C20.6401 41.2192 20.4872 41.2396 20.358 41.313L13.1525 45.429V21.4016L20.7285 17.0722L22.809 17.5909L23.0892 16.4729L20.7841 15.8967C20.6401 15.8602 20.4872 15.8811 20.358 15.9543L12.2904 20.5643C12.1101 20.6676 11.9991 20.8595 12 21.0676V46.4227C11.9999 46.6288 12.1092 46.8191 12.2878 46.9225C12.4661 47.0258 12.6862 47.0258 12.8644 46.9226L20.7308 42.428L38.9464 46.9804C39.0904 47.0169 39.243 46.9963 39.3721 46.9226L47.4397 42.3126C47.6184 42.2098 47.7279 42.0189 47.7278 41.8127V16.4575C47.7276 16.2518 47.6177 16.0615 47.4397 15.9589Z" fill="#B78505"></path> <path d="M29.8639 30.8639C30.0455 30.8639 30.2162 30.7783 30.3249 30.6332C30.5664 30.3077 36.2027 22.6727 36.2027 19.3388C36.2027 15.8381 33.3648 13 29.8639 13C26.3632 13 23.5251 15.8381 23.5251 19.3388C23.5251 22.6727 29.1615 30.3077 29.4031 30.6332C29.5117 30.7783 29.6826 30.8639 29.8639 30.8639ZM29.8639 14.1525C32.7271 14.1557 35.0472 16.4755 35.0502 19.3388C35.0502 21.5786 31.6503 26.8029 29.8639 29.308C28.0776 26.804 24.6777 21.5804 24.6777 19.3388C24.681 16.4755 27.0008 14.1557 29.8639 14.1525Z" fill="#B78505"></path> <path d="M33.3214 19.3388C33.3214 17.4291 31.7735 15.8813 29.8639 15.8813C27.9548 15.8813 26.4064 17.4291 26.4064 19.3388C26.4064 21.2484 27.9548 22.7963 29.8639 22.7963C31.7727 22.7943 33.3194 21.2475 33.3214 19.3388ZM27.5589 19.3388C27.5589 18.0656 28.591 17.0338 29.8639 17.0338C31.1368 17.0338 32.1689 18.0656 32.1689 19.3388C32.1689 20.6117 31.1368 21.6438 29.8639 21.6438C28.591 21.6438 27.5589 20.6117 27.5589 19.3388Z" fill="#B78505"></path> <path d="M28.7113 31.4401H31.0163V32.5926H28.7113V31.4401Z" fill="#B78505"></path> <path d="M31.5927 31.4401H32.7452V32.5926H31.5927V31.4401Z" fill="#B78505"></path> <path d="M26.9827 31.4401H28.1352V32.5926H26.9827V31.4401Z" fill="#B78505"></path> <path d="M39.2001 20.5556V46.2444" stroke="#B78505" stroke-width="1.5"></path> <path d="M20.311 16.7778V42.4667" stroke="#B78505" stroke-width="1.5"></path> </svg> 