<?xml version="1.0" encoding="UTF-8"?> <svg xmlns="http://www.w3.org/2000/svg" width="60" height="60" viewBox="0 0 60 60" fill="none"> <circle cx="30" cy="30" r="30" fill="white"></circle> <path d="M34.724 20.376C34.7239 19.4419 34.4467 18.5287 33.9277 17.752C33.4086 16.9754 32.6709 16.3701 31.8078 16.0127C30.9447 15.6553 29.995 15.5618 29.0788 15.7442C28.1626 15.9265 27.3211 16.3764 26.6606 17.037C26 17.6976 25.5503 18.5392 25.3681 19.4554C25.1859 20.3716 25.2794 21.3213 25.6369 22.1843C25.9945 23.0474 26.5999 23.785 27.3766 24.304C28.1533 24.823 29.0665 25.1 30.0007 25.1C31.253 25.0985 32.4536 24.6002 33.3391 23.7146C34.2246 22.829 34.7226 21.6284 34.724 20.376V20.376ZM26.3961 20.376C26.3962 19.6631 26.6077 18.9663 27.0039 18.3736C27.4 17.7809 27.963 17.319 28.6217 17.0463C29.2804 16.7735 30.0051 16.7022 30.7043 16.8414C31.4035 16.9806 32.0457 17.3239 32.5497 17.828C33.0538 18.3322 33.397 18.9745 33.536 19.6737C33.6751 20.3729 33.6037 21.0976 33.3308 21.7562C33.058 22.4148 32.596 22.9778 32.0032 23.3738C31.4105 23.7698 30.7136 23.9812 30.0007 23.9812C29.0449 23.9801 28.1286 23.5999 27.4528 22.924C26.7771 22.2481 26.397 21.3318 26.3961 20.376V20.376Z" fill="#B78505" stroke="#B78505" stroke-width="0.5"></path> <path d="M48.9643 47.2412L44.4043 35.2866C44.3639 35.1808 44.2923 35.0897 44.199 35.0254C44.1057 34.9612 43.995 34.9267 43.8817 34.9267H35.2514C35.3042 34.8407 35.3566 34.7573 35.4093 34.671C38.7301 29.1732 40.4012 24.3639 40.3772 20.3786C40.3777 17.6265 39.2848 14.9869 37.3391 13.0405C35.3934 11.0942 32.7542 10.0005 30.0021 10C27.25 9.99953 24.6105 11.0924 22.6641 13.0381C20.7177 14.9838 19.624 17.623 19.6236 20.3751C19.5996 24.3639 21.2707 29.1738 24.5914 34.671C24.6442 34.7582 24.6966 34.8417 24.7493 34.9267H16.119C16.0057 34.9267 15.8951 34.9612 15.8018 35.0254C15.7085 35.0897 15.6369 35.1808 15.5964 35.2866L11.0371 47.2412C11.0046 47.3259 10.9932 47.4172 11.0039 47.5073C11.0146 47.5974 11.0471 47.6835 11.0986 47.7582C11.15 47.8329 11.2189 47.894 11.2992 47.9361C11.3796 47.9782 11.469 48.0001 11.5597 48H48.4417C48.5324 48.0001 48.6218 47.9782 48.7022 47.9361C48.7825 47.894 48.8514 47.8329 48.9028 47.7582C48.9543 47.6835 48.9868 47.5974 48.9975 47.5073C49.0082 47.4172 48.9968 47.3259 48.9643 47.2412V47.2412ZM20.7426 20.376C20.7428 19.1602 20.9825 17.9564 21.448 16.8332C21.9134 15.7101 22.5955 14.6896 23.4554 13.83C24.3152 12.9705 25.3359 12.2887 26.4593 11.8237C27.5826 11.3586 28.7865 11.1193 30.0023 11.1195C31.2181 11.1198 32.4219 11.3594 33.5451 11.8249C34.6682 12.2903 35.6887 12.9725 36.5483 13.8323C37.4078 14.6921 38.0896 15.7129 38.5547 16.8362C39.0197 17.9595 39.259 19.1634 39.2588 20.3792C39.3067 28.3248 31.8783 38.1247 30.0007 40.4747C28.1231 38.1257 20.6944 28.3284 20.7426 20.376V20.376ZM29.5746 41.7213C29.6271 41.783 29.6924 41.8326 29.766 41.8666C29.8396 41.9006 29.9197 41.9182 30.0007 41.9182C30.0817 41.9182 30.1618 41.9006 30.2354 41.8666C30.309 41.8326 30.3743 41.783 30.4268 41.7213C31.9119 39.9121 33.2888 38.0166 34.5501 36.0448H43.4959L44.2119 37.9227L26.7305 44.14L20.4994 36.0438H25.4506C26.7121 38.016 28.0892 39.9118 29.5746 41.7213V41.7213ZM26.711 45.3332H26.7142L37.1431 41.6254L41.1881 46.8813H22.3613L26.711 45.3332ZM16.5048 36.0438H19.0875L25.6216 44.5341L19.0233 46.8809H12.3716L16.5048 36.0438ZM42.6013 46.8813L38.2513 41.2294L44.6121 38.9673L47.6305 46.8813H42.6013Z" fill="#B78505" stroke="#B78505" stroke-width="0.5"></path> </svg> 