<?xml version="1.0" encoding="UTF-8"?> <svg xmlns="http://www.w3.org/2000/svg" width="60" height="60" viewBox="0 0 60 60" fill="none"> <circle cx="30" cy="30" r="30" fill="white"></circle> <path d="M45.05 11H21.65C20.573 11 19.7 11.873 19.7 12.95V27.25H11.25C10.173 27.25 9.3 28.123 9.3 29.2V42.2H8.65C8.29104 42.2 8 42.491 8 42.85C8.00211 44.644 9.456 46.0979 11.25 46.1H32.05C33.8431 46.1018 35.2982 44.6496 35.3 42.8565C35.3 42.8543 35.3 42.8522 35.3 42.85C35.3 42.491 35.009 42.2 34.65 42.2H34V35.05H41.15C41.509 35.05 41.8 34.759 41.8 34.4C41.8 34.041 41.509 33.75 41.15 33.75H37.7401L36.8119 30.5H45.05C46.127 30.5 47 29.627 47 28.55V12.95C47 11.873 46.127 11 45.05 11ZM10.6 29.2C10.6 28.841 10.891 28.55 11.25 28.55H32.05C32.409 28.55 32.7 28.841 32.7 29.2V42.2H23.6C23.241 42.2 22.95 42.491 22.95 42.85H20.35C20.35 42.491 20.059 42.2 19.7 42.2H10.6V29.2ZM33.4332 44.2267C33.066 44.5931 32.5687 44.7993 32.05 44.8H11.25C10.4239 44.799 9.68764 44.2785 9.41115 43.5H19.05C19.05 43.859 19.341 44.15 19.7 44.15H23.6C23.959 44.15 24.25 43.859 24.25 43.5H33.8889C33.792 43.7727 33.6364 44.0207 33.4332 44.2267ZM34 33.75V30.5H35.4599L36.3881 33.75H34ZM45.7 28.55C45.7 28.909 45.409 29.2 45.05 29.2H34C34 28.123 33.127 27.25 32.05 27.25H21V12.95C21 12.591 21.291 12.3 21.65 12.3H45.05C45.409 12.3 45.7 12.591 45.7 12.95V28.55Z" fill="#B78505"></path> <path d="M43.75 35.7H38.55C37.473 35.7 36.6 36.573 36.6 37.65V48.05C36.6 49.127 37.473 50 38.55 50H43.75C44.8269 50 45.7 49.127 45.7 48.05V37.65C45.7 36.573 44.8269 35.7 43.75 35.7ZM44.4 48.05C44.4 48.4089 44.1089 48.7 43.75 48.7H38.55C38.191 48.7 37.9 48.4089 37.9 48.05V37.65C37.9 37.291 38.191 37 38.55 37H43.75C44.1089 37 44.4 37.291 44.4 37.65V48.05Z" fill="#B78505"></path> </svg> 