<?xml version="1.0" encoding="UTF-8"?> <svg xmlns="http://www.w3.org/2000/svg" width="60" height="60" viewBox="0 0 60 60" fill="none"> <circle cx="30" cy="30" r="30" fill="white"></circle> <path d="M43.5477 26.5506H40.7055L41.5618 16.7185C41.5634 16.7007 41.5637 16.6832 41.5638 16.6656C41.5638 16.6641 41.5639 16.6627 41.5639 16.6612C41.5639 16.6609 41.5639 16.6608 41.5639 16.6605C41.5639 16.3929 41.4025 16.157 41.1652 16.0545C41.1632 16.0536 41.1612 16.0526 41.1592 16.0517C41.1445 16.0455 41.1292 16.0402 41.1139 16.0351C41.1082 16.0332 41.1027 16.0309 41.097 16.0292C41.0844 16.0254 41.0716 16.0224 41.0588 16.0193C41.0498 16.0172 41.0412 16.0146 41.0321 16.0129C41.0209 16.0107 41.0092 16.0093 40.9978 16.0076C40.987 16.006 40.9764 16.0041 40.9656 16.0032C40.9637 16.003 40.9621 16.0026 40.9602 16.0025C40.9486 16.0014 40.9371 16.0016 40.9256 16.0011C40.9178 16.0009 40.9102 16 40.9025 16H40.8942C40.8935 16 40.8928 16 40.8921 16H27.3689C27.0039 16 26.7076 16.2963 26.7076 16.6613C26.7076 17.0255 27.0039 17.3226 27.3689 17.3226H40.1816L38.8656 32.4333C38.8654 32.4344 38.8654 32.4356 38.8652 32.4367L38.5332 36.2494H15.5544L15.9387 32.2818H20.314C20.6793 32.2818 20.9753 31.9857 20.9753 31.6205C20.9753 31.2553 20.6793 30.9592 20.314 30.9592H16.0669L16.8785 22.5832H23.842C24.2073 22.5832 24.5033 22.2871 24.5033 21.9219C24.5033 21.5567 24.2073 21.2606 23.842 21.2606H17.0067L17.3883 17.3226H24.7237C25.0879 17.3226 25.385 17.0255 25.385 16.6613C25.385 16.2963 25.0879 16 24.7237 16H16.7881C16.7878 16 16.7875 16.0001 16.7871 16.0001C16.4765 16 16.2071 16.2187 16.1419 16.5218C16.1415 16.524 16.1407 16.5261 16.1402 16.5283C16.1369 16.5448 16.1347 16.5617 16.1325 16.5786C16.1318 16.584 16.1307 16.5891 16.1302 16.5945C16.1301 16.5955 16.1298 16.5965 16.1297 16.5976L15.6779 21.2606H7.6613C7.296 21.2606 7 21.5567 7 21.9219C7 22.2871 7.296 22.5832 7.6613 22.5832H15.5497L14.7382 30.9592H12.3787C12.0134 30.9592 11.7174 31.2553 11.7174 31.6205C11.7174 31.9857 12.0134 32.2818 12.3787 32.2818H14.6101L14.1681 36.8422C14.168 36.8429 14.168 36.8436 14.168 36.8443L13.4847 43.8963C13.4846 43.8971 13.4845 43.8979 13.4844 43.8986L13.4842 43.9012C13.4833 43.9104 13.4834 43.9194 13.4829 43.9285C13.4822 43.9407 13.481 43.9526 13.481 43.965C13.481 43.9655 13.4811 43.966 13.4811 43.9666C13.4811 43.9836 13.4823 44.0004 13.4836 44.0172C13.4841 44.0225 13.4839 44.028 13.4845 44.0333C13.4863 44.0504 13.4892 44.0672 13.4923 44.084C13.4932 44.0889 13.4936 44.094 13.4946 44.0988C13.4971 44.1115 13.5008 44.1238 13.5041 44.1362C13.5064 44.1449 13.5082 44.1538 13.5109 44.1624C13.5117 44.1648 13.5127 44.167 13.5134 44.1695C13.5455 44.2679 13.5998 44.3563 13.6707 44.4284C13.672 44.4297 13.673 44.4312 13.6744 44.4324C13.6814 44.4395 13.6891 44.4459 13.6965 44.4526C13.7421 44.4943 13.7936 44.5298 13.8499 44.5576C13.8616 44.5634 13.8732 44.5695 13.8852 44.5745C13.8888 44.5761 13.8927 44.5771 13.8964 44.5785C13.913 44.5852 13.9296 44.5915 13.9468 44.5969C13.9484 44.5973 13.9499 44.5976 13.9515 44.5981C13.9711 44.6039 13.9908 44.6091 14.011 44.6132C14.0137 44.6137 14.0164 44.6139 14.0189 44.6144C14.0382 44.6181 14.0575 44.6211 14.0771 44.6231C14.0776 44.6231 14.0779 44.6232 14.0784 44.6233C14.1001 44.6254 14.1216 44.6264 14.1429 44.6264C14.1432 44.6264 14.1435 44.6263 14.1439 44.6263H17.0878C17.4129 47.091 19.526 49 22.0782 49C24.6302 49 26.7432 47.091 27.0683 44.6263H37.6755C38.0007 47.091 40.1137 49 42.6657 49C45.2177 49 47.331 47.091 47.6562 44.6263H50.6008C50.6013 44.6263 50.6018 44.6264 50.6022 44.6264C50.6243 44.6264 50.646 44.6251 50.6675 44.623C50.6714 44.6226 50.6751 44.6218 50.6789 44.6214C50.6961 44.6194 50.7132 44.617 50.73 44.6136C50.7372 44.6122 50.7442 44.6103 50.7513 44.6086C50.7643 44.6056 50.7773 44.6024 50.79 44.5987C50.7987 44.5961 50.807 44.5931 50.8155 44.5902C50.8264 44.5865 50.8372 44.5826 50.8479 44.5783C50.857 44.5747 50.8658 44.5707 50.8747 44.5667C50.8844 44.5622 50.8941 44.5577 50.9035 44.5528C50.9125 44.5482 50.9211 44.5435 50.9298 44.5385C50.9389 44.5332 50.9479 44.5278 50.9568 44.5221C50.9651 44.5168 50.9733 44.5115 50.9813 44.5058C50.9903 44.4995 50.9988 44.4929 51.0076 44.4862C51.0148 44.4805 51.0221 44.4749 51.0292 44.4689C51.0382 44.4612 51.0468 44.4532 51.0554 44.445C51.0614 44.4392 51.0677 44.4336 51.0735 44.4276C51.0827 44.4183 51.0914 44.4084 51.1001 44.3984C51.1048 44.393 51.1097 44.3878 51.1142 44.3824C51.1239 44.3704 51.1327 44.358 51.1415 44.3456C51.1445 44.3413 51.1478 44.3372 51.1507 44.3328C51.1615 44.3167 51.1716 44.3001 51.181 44.283C51.1817 44.2819 51.1824 44.281 51.1828 44.2798C51.1928 44.2615 51.202 44.2427 51.2102 44.2233C51.2125 44.2177 51.2142 44.212 51.2164 44.2065C51.2218 44.1928 51.2271 44.1791 51.2316 44.1649C51.2345 44.1558 51.2366 44.1463 51.2392 44.1371C51.2421 44.126 51.2452 44.1151 51.2476 44.1039C51.2499 44.0939 51.2513 44.0837 51.2529 44.0736C51.2544 44.0647 51.2564 44.0559 51.2575 44.0469C51.2856 43.8222 51.8034 39.6676 52.0347 36.9811C52.035 36.9785 52.035 36.9759 52.0353 36.9733C52.1019 36.1989 52.1445 35.5468 52.1445 35.1475C52.1445 30.4073 48.288 26.5506 43.5477 26.5506ZM40.5902 27.8734H43.2957L42.9501 31.8409H40.2447L40.5902 27.8734ZM22.0783 47.6773C20.0312 47.6773 18.3658 46.0119 18.3658 43.9649C18.3658 41.9178 20.0313 40.2524 22.0783 40.2524C24.1254 40.2524 25.7908 41.9178 25.7908 43.9649C25.7908 46.0119 24.1254 47.6773 22.0783 47.6773ZM42.6657 47.6773C40.6187 47.6773 38.9534 46.0119 38.9534 43.9649C38.9534 41.9178 40.6188 40.2524 42.6657 40.2524C44.7129 40.2524 46.3783 41.9178 46.3783 43.9649C46.3783 46.0119 44.7129 47.6773 42.6657 47.6773ZM50.0165 43.3033H47.6564C47.3313 40.8384 45.2182 38.9294 42.6659 38.9294C40.1138 38.9294 38.0007 40.8385 37.6757 43.3033H27.0686C26.7436 40.8384 24.6305 38.9294 22.0783 38.9294C19.5262 38.9294 17.4129 40.8385 17.0879 43.3033H14.8709L15.4263 37.5717H39.1392V37.572C39.1395 37.572 39.1398 37.572 39.1401 37.572C39.1623 37.572 39.1842 37.5708 39.2059 37.5686C39.21 37.5682 39.2139 37.5674 39.218 37.5668C39.2353 37.5648 39.2525 37.5623 39.2694 37.559C39.2767 37.5575 39.2839 37.5555 39.2911 37.5537C39.3043 37.5505 39.3175 37.5474 39.3304 37.5436C39.3392 37.5409 39.3476 37.5377 39.3562 37.5347C39.3673 37.5309 39.3784 37.5271 39.3891 37.5227C39.3984 37.5189 39.4073 37.5146 39.4163 37.5104C39.4261 37.5059 39.4359 37.5014 39.4453 37.4965C39.4543 37.4917 39.4631 37.4866 39.472 37.4815C39.4811 37.4762 39.4901 37.4708 39.4989 37.4652C39.5075 37.4596 39.5156 37.4538 39.5238 37.448C39.5325 37.4418 39.541 37.4355 39.5494 37.4288C39.557 37.4228 39.5645 37.4165 39.5719 37.4101C39.5803 37.4028 39.5885 37.3954 39.5964 37.3878C39.6031 37.3813 39.6098 37.3747 39.6164 37.3679C39.6243 37.3596 39.632 37.3511 39.6395 37.3423C39.6455 37.3355 39.6513 37.3286 39.6569 37.3215C39.6642 37.3123 39.6712 37.3028 39.6781 37.2931C39.6833 37.2859 39.6883 37.2787 39.6932 37.2713C39.6997 37.2613 39.7059 37.2511 39.7118 37.2407C39.7163 37.2329 39.7208 37.2252 39.7249 37.2172C39.7305 37.2068 39.7352 37.1962 39.7402 37.1856C39.7441 37.177 39.7481 37.1686 39.7516 37.1598C39.7559 37.1494 39.7596 37.1388 39.7633 37.1281C39.7666 37.1186 39.77 37.1092 39.773 37.0995C39.7759 37.0893 39.7782 37.0788 39.7809 37.0684C39.7834 37.0579 39.7863 37.0475 39.7883 37.0368C39.7903 37.0264 39.7916 37.0158 39.7931 37.0053C39.7947 36.9943 39.7966 36.9836 39.7976 36.9725C39.7978 36.9709 39.7982 36.9694 39.7983 36.9678L40.1297 33.1631H43.5475C45.5736 33.1631 46.4874 34.2129 47.4548 35.3244C48.253 36.2415 49.1442 37.2648 50.659 37.5144C50.4666 39.5485 50.1556 42.1599 50.0165 43.3033ZM50.772 36.1891C49.7894 35.9888 49.1847 35.298 48.4523 34.4564C47.5363 33.4041 46.418 32.1198 44.2742 31.8805L44.6163 27.9526C48.1224 28.4711 50.8219 31.4997 50.8219 35.1477C50.8219 35.3956 50.8034 35.7557 50.772 36.1891Z" fill="#B78505"></path> <path d="M22.0782 41.54C20.7412 41.54 19.6534 42.6277 19.6534 43.9648C19.6534 45.3018 20.7412 46.3895 22.0782 46.3895C23.4152 46.3895 24.503 45.3018 24.503 43.9648C24.503 42.6278 23.4152 41.54 22.0782 41.54ZM22.0782 45.0669C21.4704 45.0669 20.976 44.5726 20.976 43.9648C20.976 43.357 21.4704 42.8626 22.0782 42.8626C22.686 42.8626 23.1804 43.357 23.1804 43.9648C23.1804 44.5726 22.6859 45.0669 22.0782 45.0669Z" fill="#B78505"></path> <path d="M42.6659 41.54C41.3289 41.54 40.2411 42.6277 40.2411 43.9648C40.2411 45.3018 41.3289 46.3895 42.6659 46.3895C44.0028 46.3895 45.0906 45.3018 45.0906 43.9648C45.0906 42.6278 44.0028 41.54 42.6659 41.54ZM42.6659 45.0669C42.0581 45.0669 41.5637 44.5726 41.5637 43.9648C41.5637 43.357 42.0581 42.8626 42.6659 42.8626C43.2736 42.8626 43.768 43.357 43.768 43.9648C43.768 44.5726 43.2736 45.0669 42.6659 45.0669Z" fill="#B78505"></path> <path d="M13.2602 26.5508H10.0273C9.66196 26.5508 9.36597 26.8469 9.36597 27.2121C9.36597 27.5774 9.66196 27.8734 10.0273 27.8734H13.2602C13.6255 27.8734 13.9215 27.5774 13.9215 27.2121C13.9215 26.8469 13.6255 26.5508 13.2602 26.5508Z" fill="#B78505"></path> </svg> 