<?xml version="1.0" encoding="UTF-8"?> <svg xmlns="http://www.w3.org/2000/svg" width="60" height="60" viewBox="0 0 60 60" fill="none"> <circle cx="30" cy="30" r="30" fill="white"></circle> <path d="M47.9884 19.2562C47.9872 18.7177 47.7726 18.2017 47.3917 17.8212C47.0108 17.4406 46.4945 17.2266 45.956 17.226H39.8721V14.0323C39.8715 13.4935 39.6572 12.9769 39.2762 12.5959C38.8952 12.2149 38.3786 12.0006 37.8398 12H22.1617C21.6229 12.0006 21.1063 12.2149 20.7253 12.5959C20.3443 12.9769 20.13 13.4935 20.1294 14.0323V30.0733H14.044C13.5057 30.074 12.9895 30.2879 12.6086 30.6683C12.2277 31.0486 12.0131 31.5644 12.0116 32.1027L12 36.1682C11.9997 36.4352 12.0521 36.6997 12.1541 36.9466C12.2561 37.1934 12.4057 37.4177 12.5945 37.6066C12.7832 37.7956 13.0074 37.9455 13.2541 38.0478C13.5008 38.15 13.7653 38.2027 14.0323 38.2027H20.1294V45.9691C20.13 46.5079 20.3443 47.0245 20.7253 47.4055C21.1063 47.7865 21.6229 48.0009 22.1617 48.0015H37.8398C38.3786 48.0009 38.8952 47.7865 39.2762 47.4055C39.6572 47.0245 39.8715 46.5079 39.8721 45.9691V25.3554H45.9677C46.2348 25.3554 46.4993 25.3027 46.7461 25.2004C46.9928 25.0981 47.217 24.9481 47.4058 24.7591C47.5945 24.5701 47.7442 24.3457 47.8461 24.0988C47.9481 23.8519 48.0004 23.5873 48 23.3201L47.9884 19.2562ZM32.7408 13.1613L32.4504 14.3227H27.551L27.2607 13.1613H32.7408ZM14.0323 37.0413C13.8013 37.0413 13.5798 36.9496 13.4164 36.7862C13.2531 36.6229 13.1613 36.4013 13.1613 36.1703L13.173 32.1049C13.1735 31.8742 13.2655 31.653 13.4287 31.4899C13.592 31.3268 13.8132 31.235 14.044 31.2346H29.7089C29.9399 31.2348 30.1613 31.3267 30.3246 31.49C30.4879 31.6533 30.5798 31.8747 30.5799 32.1056V36.1703C30.5798 36.4013 30.4879 36.6227 30.3246 36.786C30.1613 36.9493 29.9399 37.0411 29.7089 37.0413H27.6766C27.5226 37.0413 27.3749 37.1025 27.266 37.2114C27.1571 37.3203 27.0959 37.468 27.0959 37.622V39.7044L24.6034 37.2112C24.4944 37.1024 24.3466 37.0413 24.1926 37.0413H14.0323ZM38.7108 45.9691C38.7106 46.2001 38.6187 46.4215 38.4554 46.5848C38.2921 46.7481 38.0707 46.8399 37.8398 46.8401H22.1617C21.9308 46.8399 21.7093 46.7481 21.546 46.5848C21.3827 46.4215 21.2909 46.2001 21.2907 45.9691V38.2027H23.9523L27.2658 41.5168C27.347 41.5981 27.4505 41.6535 27.5632 41.676C27.6759 41.6984 27.7927 41.6869 27.8989 41.6429C28.005 41.5989 28.0958 41.5244 28.1596 41.4289C28.2234 41.3333 28.2574 41.2209 28.2573 41.106V38.2027H29.7089C30.2478 38.2021 30.7644 37.9878 31.1454 37.6068C31.5264 37.2257 31.7407 36.7092 31.7413 36.1703V32.1056C31.7407 31.5668 31.5264 31.0502 31.1454 30.6692C30.7644 30.2882 30.2478 30.0739 29.7089 30.0733H21.2907V14.0323C21.2909 13.8014 21.3827 13.58 21.546 13.4167C21.7093 13.2534 21.9308 13.1615 22.1617 13.1613H26.0631L26.5341 15.0442C26.5655 15.1698 26.638 15.2813 26.7401 15.361C26.8421 15.4407 26.9679 15.484 27.0974 15.484H32.9041C33.0336 15.484 33.1593 15.4407 33.2614 15.361C33.3634 15.2813 33.4359 15.1698 33.4673 15.0442L33.9384 13.1613H37.8398C38.0707 13.1615 38.2921 13.2534 38.4554 13.4167C38.6187 13.58 38.7106 13.8014 38.7108 14.0323V17.226H30.2911C29.7522 17.2266 29.2356 17.4409 28.8546 17.8219C28.4736 18.2029 28.2593 18.7195 28.2587 19.2584V23.323C28.2593 23.8619 28.4736 24.3785 28.8546 24.7595C29.2356 25.1405 29.7522 25.3548 30.2911 25.3554H31.7427V28.2587C31.7426 28.3736 31.7766 28.486 31.8404 28.5816C31.9042 28.6771 31.995 28.7516 32.1011 28.7956C32.2073 28.8396 32.3241 28.8511 32.4368 28.8287C32.5495 28.8062 32.653 28.7508 32.7342 28.6695L36.0477 25.3554H38.7108V45.9691ZM46.5839 23.9385C46.5032 24.0198 46.4072 24.0842 46.3014 24.1281C46.1956 24.1719 46.0822 24.1943 45.9677 24.194H35.8074C35.6534 24.194 35.5056 24.2551 35.3966 24.3639L32.9041 26.8571V24.7747C32.9041 24.6207 32.8429 24.473 32.734 24.3641C32.6251 24.2552 32.4774 24.194 32.3234 24.194H30.2911C30.0601 24.1938 29.8387 24.102 29.6754 23.9387C29.5121 23.7754 29.4202 23.554 29.4201 23.323V19.2584C29.4202 19.0274 29.5121 18.806 29.6754 18.6427C29.8387 18.4794 30.0601 18.3875 30.2911 18.3874H45.956C46.1869 18.3878 46.4082 18.4797 46.5715 18.6429C46.7347 18.8062 46.8266 19.0275 46.827 19.2584L46.8387 23.3223C46.839 23.4368 46.8167 23.5502 46.773 23.6559C46.7293 23.7617 46.665 23.8578 46.5839 23.9385V23.9385Z" fill="#B78505"></path> <path d="M38.1301 19.5487C37.7855 19.5487 37.4487 19.6509 37.1623 19.8423C36.8758 20.0337 36.6525 20.3057 36.5207 20.6241C36.3888 20.9424 36.3543 21.2926 36.4215 21.6305C36.4887 21.9685 36.6547 22.2789 36.8983 22.5225C37.1419 22.7661 37.4523 22.932 37.7902 22.9992C38.1281 23.0664 38.4784 23.0319 38.7967 22.9001C39.115 22.7683 39.3871 22.545 39.5785 22.2585C39.7699 21.972 39.8721 21.6352 39.8721 21.2907C39.8716 20.8288 39.6879 20.3861 39.3613 20.0595C39.0347 19.7329 38.5919 19.5492 38.1301 19.5487ZM38.1301 21.8714C38.0152 21.8714 37.903 21.8373 37.8075 21.7735C37.712 21.7097 37.6376 21.619 37.5936 21.5129C37.5497 21.4068 37.5382 21.2901 37.5606 21.1774C37.583 21.0648 37.6383 20.9613 37.7195 20.8801C37.8007 20.7989 37.9041 20.7436 38.0168 20.7212C38.1294 20.6988 38.2462 20.7103 38.3523 20.7542C38.4584 20.7982 38.5491 20.8726 38.6129 20.9681C38.6767 21.0636 38.7107 21.1759 38.7107 21.2907C38.7106 21.4446 38.6493 21.5922 38.5405 21.7011C38.4316 21.81 38.284 21.8712 38.1301 21.8714V21.8714Z" fill="#B78505"></path> <path d="M33.4848 19.5487C33.1403 19.5487 32.8035 19.6509 32.517 19.8423C32.2305 20.0337 32.0073 20.3057 31.8754 20.6241C31.7436 20.9424 31.7091 21.2926 31.7763 21.6305C31.8435 21.9685 32.0094 22.2789 32.253 22.5225C32.4966 22.7661 32.807 22.932 33.145 22.9992C33.4829 23.0664 33.8331 23.0319 34.1514 22.9001C34.4698 22.7683 34.7418 22.545 34.9332 22.2585C35.1246 21.972 35.2268 21.6352 35.2268 21.2907C35.2263 20.8288 35.0426 20.3861 34.716 20.0595C34.3894 19.7329 33.9467 19.5492 33.4848 19.5487ZM33.4848 21.8714C33.37 21.8714 33.2577 21.8373 33.1622 21.7735C33.0667 21.7097 32.9923 21.619 32.9483 21.5129C32.9044 21.4068 32.8929 21.2901 32.9153 21.1774C32.9377 21.0648 32.993 20.9613 33.0742 20.8801C33.1554 20.7989 33.2589 20.7436 33.3715 20.7212C33.4842 20.6988 33.6009 20.7103 33.707 20.7542C33.8131 20.7982 33.9038 20.8726 33.9676 20.9681C34.0314 21.0636 34.0655 21.1759 34.0655 21.2907C34.0653 21.4446 34.0041 21.5922 33.8952 21.7011C33.7864 21.81 33.6388 21.8712 33.4848 21.8714Z" fill="#B78505"></path> <path d="M42.7755 19.5487C42.4309 19.5487 42.0941 19.6509 41.8076 19.8423C41.5212 20.0337 41.2979 20.3057 41.1661 20.6241C41.0342 20.9424 40.9997 21.2926 41.0669 21.6305C41.1341 21.9685 41.3 22.2789 41.5437 22.5225C41.7873 22.7661 42.0977 22.932 42.4356 22.9992C42.7735 23.0664 43.1238 23.0319 43.4421 22.9001C43.7604 22.7683 44.0325 22.545 44.2239 22.2585C44.4153 21.972 44.5175 21.6352 44.5175 21.2907C44.5169 20.8288 44.3332 20.3861 44.0067 20.0595C43.6801 19.7329 43.2373 19.5492 42.7755 19.5487V19.5487ZM42.7755 21.8714C42.6606 21.8714 42.5483 21.8373 42.4529 21.7735C42.3574 21.7097 42.2829 21.619 42.239 21.5129C42.195 21.4068 42.1835 21.2901 42.2059 21.1774C42.2283 21.0648 42.2837 20.9613 42.3649 20.8801C42.4461 20.7989 42.5495 20.7436 42.6622 20.7212C42.7748 20.6988 42.8916 20.7103 42.9977 20.7542C43.1038 20.7982 43.1945 20.8726 43.2583 20.9681C43.3221 21.0636 43.3561 21.1759 43.3561 21.2907C43.3559 21.4446 43.2947 21.5922 43.1859 21.7011C43.077 21.81 42.9294 21.8712 42.7755 21.8714V21.8714Z" fill="#B78505"></path> <path d="M23.6118 34.138C23.6118 33.7935 23.5097 33.4567 23.3182 33.1702C23.1268 32.8837 22.8548 32.6604 22.5365 32.5286C22.2181 32.3967 21.8679 32.3622 21.53 32.4295C21.192 32.4967 20.8817 32.6626 20.638 32.9062C20.3944 33.1498 20.2285 33.4602 20.1613 33.7981C20.0941 34.1361 20.1286 34.4863 20.2604 34.8046C20.3923 35.1229 20.6155 35.395 20.902 35.5864C21.1885 35.7778 21.5253 35.88 21.8698 35.88C22.3317 35.8795 22.7744 35.6958 23.101 35.3692C23.4276 35.0426 23.6113 34.5998 23.6118 34.138V34.138ZM21.2891 34.138C21.2891 34.0231 21.3232 33.9109 21.387 33.8154C21.4508 33.7199 21.5415 33.6455 21.6476 33.6015C21.7537 33.5576 21.8705 33.5461 21.9831 33.5685C22.0957 33.5909 22.1992 33.6462 22.2804 33.7274C22.3616 33.8086 22.4169 33.9121 22.4393 34.0247C22.4617 34.1373 22.4502 34.2541 22.4063 34.3602C22.3623 34.4663 22.2879 34.557 22.1924 34.6208C22.0969 34.6846 21.9847 34.7187 21.8698 34.7187C21.7159 34.7185 21.5683 34.6573 21.4594 34.5484C21.3506 34.4395 21.2893 34.2919 21.2891 34.138Z" fill="#B78505"></path> <path d="M26.5152 35.88C26.8597 35.88 27.1965 35.7778 27.483 35.5864C27.7695 35.395 27.9928 35.1229 28.1246 34.8046C28.2564 34.4863 28.2909 34.1361 28.2237 33.7981C28.1565 33.4602 27.9906 33.1498 27.747 32.9062C27.5034 32.6626 27.193 32.4967 26.855 32.4295C26.5171 32.3622 26.1669 32.3967 25.8486 32.5286C25.5303 32.6604 25.2582 32.8837 25.0668 33.1702C24.8754 33.4567 24.7732 33.7935 24.7732 34.138C24.7737 34.5998 24.9574 35.0426 25.284 35.3692C25.6106 35.6958 26.0533 35.8795 26.5152 35.88V35.88ZM26.5152 33.5573C26.63 33.5573 26.7423 33.5914 26.8378 33.6552C26.9333 33.719 27.0077 33.8097 27.0517 33.9158C27.0956 34.0219 27.1071 34.1386 27.0847 34.2513C27.0623 34.3639 27.007 34.4674 26.9258 34.5486C26.8446 34.6298 26.7411 34.6851 26.6285 34.7075C26.5158 34.7299 26.3991 34.7184 26.293 34.6745C26.1869 34.6305 26.0962 34.5561 26.0324 34.4606C25.9686 34.3651 25.9345 34.2528 25.9345 34.138C25.9347 33.984 25.9959 33.8364 26.1048 33.7276C26.2137 33.6187 26.3612 33.5575 26.5152 33.5573V33.5573Z" fill="#B78505"></path> <path d="M17.2244 32.396C16.8799 32.396 16.5431 32.4981 16.2566 32.6896C15.9702 32.881 15.7469 33.153 15.615 33.4714C15.4832 33.7897 15.4487 34.1399 15.5159 34.4778C15.5831 34.8158 15.749 35.1261 15.9926 35.3698C16.2363 35.6134 16.5467 35.7793 16.8846 35.8465C17.2225 35.9137 17.5728 35.8792 17.8911 35.7474C18.2094 35.6155 18.4814 35.3923 18.6729 35.1058C18.8643 34.8193 18.9664 34.4825 18.9664 34.138C18.9659 33.6761 18.7822 33.2334 18.4556 32.9068C18.1291 32.5802 17.6863 32.3965 17.2244 32.396ZM17.2244 34.7187C17.1096 34.7187 16.9973 34.6846 16.9018 34.6208C16.8063 34.557 16.7319 34.4663 16.688 34.3602C16.644 34.2541 16.6325 34.1373 16.6549 34.0247C16.6773 33.9121 16.7326 33.8086 16.8138 33.7274C16.895 33.6462 16.9985 33.5909 17.1111 33.5685C17.2238 33.5461 17.3405 33.5576 17.4466 33.6015C17.5527 33.6455 17.6434 33.7199 17.7072 33.8154C17.771 33.9109 17.8051 34.0231 17.8051 34.138C17.8049 34.2919 17.7437 34.4395 17.6348 34.5484C17.526 34.6573 17.3784 34.7185 17.2244 34.7187V34.7187Z" fill="#B78505"></path> </svg> 