<?xml version="1.0" encoding="UTF-8"?> <svg xmlns="http://www.w3.org/2000/svg" width="60" height="60" viewBox="0 0 60 60" fill="none"> <circle cx="30" cy="30" r="30" fill="white"></circle> <path d="M43.2536 16.2738C43.2522 16.2594 43.2497 16.2453 43.2472 16.2312C43.2464 16.2263 43.2459 16.2212 43.2449 16.2163C43.2416 16.1996 43.2373 16.1831 43.2325 16.1668C43.2318 16.1647 43.2314 16.1624 43.2308 16.1603C43.2257 16.1437 43.2197 16.1275 43.2133 16.1115C43.2126 16.1096 43.212 16.1078 43.2113 16.1059C43.205 16.0906 43.1978 16.0758 43.1902 16.0612C43.1888 16.0587 43.1878 16.056 43.1865 16.0535C43.1792 16.04 43.1711 16.0268 43.1628 16.014C43.1606 16.0106 43.1588 16.007 43.1565 16.0036C43.1482 15.9913 43.1392 15.9795 43.1301 15.9678C43.1273 15.9643 43.1248 15.9605 43.122 15.957C43.1097 15.9421 43.0967 15.9276 43.083 15.9139L38.3429 11.1737C38.3293 11.16 38.3149 11.147 38.2999 11.1346C38.296 11.1315 38.2918 11.1288 38.2879 11.1257C38.2766 11.1169 38.2653 11.1081 38.2533 11.1001C38.2496 11.0976 38.2457 11.0955 38.2419 11.0932C38.2293 11.0852 38.2167 11.0773 38.2036 11.0702C38.2006 11.0687 38.1976 11.0675 38.1947 11.066C38.1804 11.0586 38.1659 11.0515 38.1511 11.0454C38.149 11.0445 38.1467 11.0438 38.1446 11.0431C38.1289 11.0367 38.1129 11.0308 38.0966 11.0258C38.0942 11.0251 38.0918 11.0247 38.0894 11.024C38.0733 11.0194 38.0571 11.015 38.0405 11.0117C38.0355 11.0107 38.0304 11.0103 38.0254 11.0094C38.0114 11.007 37.9973 11.0045 37.983 11.0031C37.9634 11.001 37.9436 11 37.9238 11H16.5926C16.2653 11 16 11.2653 16 11.5926V47.421C16 47.7483 16.2653 48.0136 16.5926 48.0136H30.024C30.3512 48.0136 30.6165 47.7483 30.6165 47.421C30.6165 47.0938 30.3512 46.8284 30.024 46.8284H17.1851V12.1851H37.3312V16.3329C37.3312 16.6602 37.5965 16.9255 37.9238 16.9255H42.0714V46.8284H38.7149C38.3876 46.8284 38.1223 47.0938 38.1223 47.421C38.1223 47.7483 38.3876 48.0136 38.7149 48.0136H42.664C42.9912 48.0136 43.2566 47.7483 43.2566 47.421V16.3329C43.2566 16.3131 43.2556 16.2933 43.2536 16.2738ZM38.5164 15.7404V13.0232L41.2335 15.7404H38.5164Z" fill="#B78505"></path> <path d="M37.9237 27.8678H21.3328C21.0055 27.8678 20.7402 28.1331 20.7402 28.4603C20.7402 28.7876 21.0055 29.0529 21.3328 29.0529H37.9237C38.2509 29.0529 38.5162 28.7876 38.5162 28.4603C38.5162 28.1331 38.2509 27.8678 37.9237 27.8678Z" fill="#B78505"></path> <path d="M37.9237 31.0289H21.3328C21.0055 31.0289 20.7402 31.2942 20.7402 31.6214C20.7402 31.9487 21.0055 32.214 21.3328 32.214H37.9237C38.2509 32.214 38.5162 31.9487 38.5162 31.6214C38.5162 31.2942 38.2509 31.0289 37.9237 31.0289Z" fill="#B78505"></path> <path d="M37.9237 34.1891H21.3328C21.0055 34.1891 20.7402 34.4544 20.7402 34.7817C20.7402 35.1089 21.0055 35.3742 21.3328 35.3742H37.9237C38.2509 35.3742 38.5162 35.1089 38.5162 34.7817C38.5162 34.4544 38.2509 34.1891 37.9237 34.1891Z" fill="#B78505"></path> <path d="M28.4431 37.3494H21.3328C21.0055 37.3494 20.7402 37.6148 20.7402 37.942C20.7402 38.2693 21.0055 38.5346 21.3328 38.5346H28.4431C28.7704 38.5346 29.0357 38.2693 29.0357 37.942C29.0357 37.6148 28.7704 37.3494 28.4431 37.3494Z" fill="#B78505"></path> <path d="M38.5172 43.0776C38.5172 40.7904 36.6565 38.9297 34.3693 38.9297C32.082 38.9297 30.2213 40.7904 30.2213 43.0776C30.2213 44.3957 30.8401 45.5714 31.8016 46.3317V50.8598C31.8016 50.8662 31.8024 50.8722 31.8026 50.8786C31.803 50.8906 31.8033 50.9027 31.8044 50.9147C31.8052 50.9232 31.8065 50.9315 31.8076 50.9399C31.8091 50.9507 31.8106 50.9615 31.8126 50.9723C31.8144 50.9813 31.8167 50.9901 31.8188 50.999C31.8212 51.0088 31.8235 51.0187 31.8264 51.0284C31.8291 51.0378 31.8324 51.0468 31.8356 51.0559C31.8388 51.0649 31.8419 51.074 31.8455 51.083C31.8494 51.0924 31.8537 51.1015 31.8581 51.1108C31.8619 51.119 31.8656 51.1273 31.8699 51.1354C31.875 51.1451 31.8807 51.1544 31.8863 51.1638C31.8906 51.171 31.8948 51.1784 31.8995 51.1855C31.906 51.1955 31.9132 51.2049 31.9203 51.2145C31.9242 51.2196 31.9275 51.225 31.9315 51.2301C31.9323 51.2311 31.9333 51.2319 31.9341 51.2329C31.9473 51.2493 31.9614 51.2651 31.9763 51.2799C31.9805 51.2841 31.9851 51.2877 31.9894 51.2918C32.0003 51.302 32.0113 51.3119 32.0229 51.3213C32.0299 51.3269 32.0371 51.332 32.0443 51.3373C32.054 51.3444 32.0637 51.3513 32.0738 51.3578C32.0813 51.3627 32.089 51.3673 32.0968 51.3718C32.1073 51.378 32.1181 51.3837 32.129 51.3892C32.1364 51.3929 32.1438 51.3966 32.1515 51.4C32.1636 51.4055 32.176 51.4103 32.1885 51.4149C32.1953 51.4175 32.202 51.4202 32.2089 51.4224C32.2228 51.427 32.2372 51.4308 32.2517 51.4344C32.2574 51.4358 32.2631 51.4375 32.2689 51.4388C32.2849 51.4423 32.3011 51.4447 32.3176 51.4469C32.3222 51.4474 32.3267 51.4484 32.3312 51.4489C32.3506 51.451 32.3703 51.452 32.3902 51.4522C32.3917 51.4522 32.3932 51.4524 32.3947 51.4524C32.3953 51.4524 32.3959 51.4522 32.3965 51.4522C32.4254 51.4522 32.4536 51.4493 32.4814 51.4453C32.4874 51.4444 32.4932 51.4436 32.4992 51.4425C32.5274 51.4375 32.5548 51.4306 32.5815 51.4217C32.5864 51.4201 32.5911 51.4182 32.5959 51.4164C32.6243 51.4062 32.6519 51.3943 32.6782 51.38C32.6791 51.3795 32.68 51.3788 32.6809 51.3784C32.7086 51.3631 32.7346 51.3454 32.7592 51.3261C32.761 51.3247 32.7629 51.3238 32.7646 51.3225L34.3696 50.0385L35.9745 51.3225C35.9761 51.3238 35.978 51.3246 35.9796 51.326C36.0044 51.3454 36.0306 51.3631 36.0582 51.3784C36.0591 51.3789 36.0599 51.3795 36.0608 51.38C36.087 51.3944 36.1147 51.4063 36.1432 51.4165C36.148 51.4183 36.1527 51.4202 36.1575 51.4217C36.1841 51.4306 36.2116 51.4375 36.2398 51.4426C36.2457 51.4436 36.2516 51.4444 36.2576 51.4453C36.2854 51.4494 36.3136 51.4522 36.3425 51.4522C36.3431 51.4522 36.3437 51.4524 36.3443 51.4524C36.3457 51.4524 36.3473 51.4522 36.3487 51.4522C36.3687 51.452 36.3883 51.451 36.4078 51.4489C36.4123 51.4484 36.4167 51.4474 36.4211 51.4469C36.4376 51.4447 36.4541 51.4422 36.47 51.4387C36.4757 51.4375 36.4813 51.4358 36.4869 51.4344C36.5016 51.4308 36.516 51.427 36.5302 51.4223C36.5369 51.4201 36.5434 51.4174 36.5501 51.415C36.5628 51.4103 36.5753 51.4054 36.5875 51.3999C36.595 51.3966 36.6024 51.3929 36.6098 51.3892C36.6208 51.3837 36.6316 51.3779 36.6422 51.3717C36.6499 51.3672 36.6576 51.3626 36.6652 51.3577C36.6752 51.3512 36.685 51.3443 36.6946 51.3372C36.7018 51.3319 36.709 51.3268 36.7161 51.3212C36.7277 51.3119 36.7387 51.3019 36.7495 51.2918C36.7538 51.2877 36.7584 51.284 36.7626 51.2798C36.7776 51.265 36.7916 51.2492 36.8049 51.2328C36.8057 51.2318 36.8067 51.231 36.8075 51.23C36.8115 51.225 36.8147 51.2196 36.8186 51.2146C36.8258 51.205 36.833 51.1955 36.8396 51.1854C36.8443 51.1783 36.8484 51.171 36.8528 51.1638C36.8584 51.1544 36.8641 51.1451 36.8693 51.1353C36.8735 51.1273 36.8772 51.1191 36.881 51.1108C36.8854 51.1016 36.8897 51.0924 36.8936 51.0829C36.8972 51.0739 36.9003 51.0649 36.9035 51.0558C36.9067 51.0468 36.9099 51.0377 36.9127 51.0284C36.9156 51.0186 36.9179 51.0087 36.9203 50.9988C36.9224 50.99 36.9247 50.9812 36.9265 50.9722C36.9285 50.9614 36.9299 50.9505 36.9314 50.9397C36.9325 50.9314 36.9339 50.9231 36.9347 50.9147C36.9358 50.9026 36.9361 50.8905 36.9365 50.8784C36.9367 50.8722 36.9374 50.8661 36.9374 50.8597L36.9373 46.3317C37.8984 45.5714 38.5172 44.3957 38.5172 43.0776ZM34.7481 48.8239C34.7481 48.8238 34.748 48.8238 34.748 48.8237L34.7397 48.817C34.7353 48.8136 34.7307 48.8107 34.7264 48.8074C34.7159 48.7994 34.7054 48.7916 34.6945 48.7844C34.6881 48.7802 34.6815 48.7765 34.675 48.7726C34.6649 48.7666 34.655 48.7605 34.6446 48.7551C34.6365 48.7509 34.6282 48.7471 34.6199 48.7433C34.611 48.7391 34.602 48.7348 34.5929 48.7312C34.5833 48.7272 34.5735 48.7239 34.5638 48.7205C34.5556 48.7177 34.5475 48.7147 34.5393 48.7123C34.5289 48.7092 34.5185 48.7067 34.508 48.7042C34.4999 48.7023 34.4918 48.7002 34.4837 48.6985C34.4734 48.6966 34.4631 48.6951 34.4528 48.6937C34.4441 48.6924 34.4353 48.6911 34.4265 48.6903C34.4171 48.6893 34.4077 48.6889 34.3982 48.6884C34.3883 48.688 34.3785 48.6875 34.3686 48.6875C34.3603 48.6875 34.352 48.688 34.3436 48.6884C34.3327 48.6888 34.3218 48.6893 34.3109 48.6904C34.3035 48.6911 34.2961 48.6922 34.2888 48.6933C34.2771 48.6948 34.2655 48.6966 34.254 48.6988C34.2471 48.7002 34.2402 48.7019 34.2334 48.7035C34.2218 48.7063 34.2102 48.7091 34.1987 48.7125C34.1914 48.7147 34.1843 48.7173 34.1771 48.7198C34.1665 48.7234 34.1558 48.7272 34.1453 48.7314C34.1368 48.7348 34.1286 48.7388 34.1203 48.7426C34.1115 48.7467 34.1026 48.7508 34.0938 48.7554C34.0839 48.7606 34.0742 48.7665 34.0644 48.7723C34.0577 48.7765 34.0509 48.7802 34.0442 48.7846C34.0333 48.7918 34.0228 48.7997 34.0122 48.8077C34.0079 48.811 34.0034 48.8137 33.9991 48.8171L33.9909 48.8238C33.9908 48.8239 33.9907 48.8239 33.9905 48.8241L32.9868 49.6271V46.9881C33.4195 47.1415 33.8846 47.2259 34.3693 47.2259C34.8539 47.2259 35.319 47.1416 35.7518 46.9881L35.7519 49.6269L34.7481 48.8239ZM34.3693 46.0405C32.7355 46.0405 31.4064 44.7114 31.4064 43.0776C31.4064 41.4439 32.7355 40.1148 34.3693 40.1148C36.003 40.1148 37.3321 41.4439 37.3321 43.0776C37.3321 44.7114 36.003 46.0405 34.3693 46.0405Z" fill="#B78505"></path> <path d="M34.3694 41.2999C33.3891 41.2999 32.5917 42.0973 32.5917 43.0776C32.5917 44.0578 33.3891 44.8553 34.3694 44.8553C35.3496 44.8553 36.1471 44.0578 36.1471 43.0776C36.1471 42.0973 35.3496 41.2999 34.3694 41.2999ZM34.3694 43.6701C34.0426 43.6701 33.7768 43.4044 33.7768 43.0776C33.7768 42.7508 34.0426 42.485 34.3694 42.485C34.6961 42.485 34.9619 42.7508 34.9619 43.0776C34.9619 43.4044 34.6961 43.6701 34.3694 43.6701Z" fill="#B78505"></path> </svg> 