<?xml version="1.0" encoding="UTF-8"?> <svg xmlns="http://www.w3.org/2000/svg" width="101" height="101" viewBox="0 0 101 101" fill="none"> <circle cx="50.5" cy="50.5" r="49.5" stroke="#C2A457" stroke-width="2"></circle> <path d="M78.3417 28.027L78.2458 27.9671L66.1339 22L53.061 39.4305L59.0755 47.4503C58.8955 50.4748 57.6129 53.3283 55.4705 55.4707C53.3281 57.6131 50.4745 58.8957 47.45 59.0757L39.4303 53.0612L22 66.1338L27.9174 78.1444L27.9672 78.2458L28.0272 78.3415C28.343 78.8503 28.7838 79.2699 29.3075 79.5602C29.8313 79.8505 30.4207 80.0019 31.0195 80H34.1448C40.1666 80 46.1295 78.8139 51.6929 76.5095C57.2563 74.205 62.3113 70.8273 66.5694 66.5693C70.8274 62.3112 74.2051 57.2562 76.5095 51.6927C78.8139 46.1293 80 40.1665 80 34.1447V31.0192C80.0019 30.4204 79.8505 29.8311 79.5602 29.3073C79.27 28.7835 78.8505 28.3427 78.3417 28.027V28.027ZM75.5241 34.1447C75.5241 56.9613 56.9613 75.5241 34.1448 75.5241H31.6159L27.6567 67.4866L39.4312 58.6558L45.9866 63.5721H46.7325C51.1974 63.5671 55.4779 61.7913 58.6351 58.6341C61.7922 55.477 63.5681 51.1964 63.5731 46.7315V45.9856L58.6567 39.4303L67.4866 27.6566L75.5241 31.6165V34.1447Z" fill="#C2A457"></path> </svg> 