<?xml version="1.0" encoding="UTF-8"?> <svg xmlns="http://www.w3.org/2000/svg" width="101" height="101" viewBox="0 0 101 101" fill="none"> <circle cx="50.5" cy="50.5" r="49.5" stroke="#C2A457" stroke-width="2"></circle> <path d="M63.179 55.5633C62.5399 55.2398 59.4273 53.721 58.8456 53.5042C58.2639 53.297 57.8415 53.1887 57.4176 53.8277C57.0032 54.4509 55.7824 55.8773 55.4095 56.2933C55.0365 56.7093 54.67 56.7411 54.0404 56.459C53.4013 56.1355 51.3597 55.4709 48.9357 53.297C47.0423 51.6124 45.7816 49.5374 45.4071 48.8983C45.0342 48.2672 45.3657 47.9102 45.6812 47.5946C45.9713 47.3045 46.3203 46.8647 46.6438 46.4822C46.9514 46.0997 47.0502 45.8431 47.275 45.4287C47.4822 44.9808 47.3754 44.6318 47.2176 44.3162C47.0598 44.0007 45.7896 40.8722 45.2589 39.6258C44.7521 38.3891 44.2213 38.5469 43.8309 38.5469C43.4659 38.5134 43.042 38.5134 42.6196 38.5134C42.1973 38.5134 41.5072 38.6712 40.9255 39.2768C40.3437 39.9159 38.7006 41.4427 38.7006 44.5314C38.7006 47.6281 40.9749 50.6243 41.2904 51.0722C41.614 51.4865 45.7641 57.8615 52.1311 60.6012C53.65 61.2403 54.8293 61.6228 55.7505 61.9383C57.2694 62.4197 58.6559 62.3527 59.7508 62.1949C60.9621 61.9957 63.5025 60.6586 64.0348 59.1652C64.5751 57.6623 64.5751 56.4176 64.4173 56.1355C64.2596 55.8454 63.8452 55.6877 63.2061 55.4056L63.179 55.5633ZM51.6323 71.2188H51.5988C47.8296 71.2188 44.1034 70.1972 40.849 68.2878L40.0856 67.832L32.1168 69.9071L34.2588 62.1535L33.744 61.3566C31.6394 58.0103 30.5229 54.1376 30.5231 50.1844C30.5231 38.6138 39.9947 29.1756 51.6482 29.1756C57.2933 29.1756 62.5893 31.375 66.5737 35.3594C68.5392 37.3015 70.0983 39.6156 71.16 42.1667C72.2217 44.7178 72.7647 47.4547 72.7574 50.2179C72.7415 61.7806 63.2778 71.2188 51.6402 71.2188H51.6323ZM69.6034 32.3297C64.7552 27.6472 58.3802 25 51.5988 25C37.6121 25 26.2231 36.3395 26.2152 50.2753C26.2152 54.725 27.377 59.0664 29.6019 62.9089L26 76L39.464 72.489C43.1939 74.4999 47.363 75.5577 51.6004 75.5681H51.6084C65.6031 75.5681 76.992 64.2286 77 50.2833C77 43.5353 74.3687 37.1842 69.5715 32.4109L69.6034 32.3297Z" fill="#C2A457"></path> </svg> 