<?xml version="1.0" encoding="utf-8"?><svg width="254" height="27" viewBox="0 0 254 27" xmlns="http://www.w3.org/2000/svg" xmlns:xlink="http://www.w3.org/1999/xlink"><svg viewBox="-2 -2 17 12" width="17" height="12" id="icon--arrow-down" xmlns="http://www.w3.org/2000/svg"><path fill="none" stroke="#5e5e5e" stroke-width="2" d="M.8.8l5.8 5.8L12.4.8"/></svg><svg width="12.71" height="9.06" viewBox="-2 -2 12.71 9.06" id="icon--arrow-down-sm" x="17" xmlns="http://www.w3.org/2000/svg"><path d="M.353.353l4 4 4-4" fill="none" stroke="#5e5e5e"/></svg><svg version="1.1" id="icon--arrow-left" x="30" viewBox="-2 -2 15 23" xml:space="preserve" width="15" height="23" xmlns="http://www.w3.org/2000/svg"><style>.cst0{fill:none;stroke:#ed6c06;stroke-width:2;stroke-linecap:round}</style><path class="cst0" d="M10 1L1.4 9.5 10 18"/></svg><svg viewBox="-2 -2 36 20" width="36" height="20" id="icon--arrow-long-right" x="45" xmlns="http://www.w3.org/2000/svg"><path fill="nnoe" stroke="#272727" d="M0 8h31M22.8.4L31.3 8l-8.5 7.6"/></svg><svg viewBox="-2 -2 24 24" width="24" height="24" id="icon--availability" x="81" xmlns="http://www.w3.org/2000/svg"><circle fill="#009845" cx="10" cy="10" r="10"/><path fill="none" stroke="#fff" stroke-width="2" stroke-linecap="round" d="M5.8 9.4L9 12.6l5.1-5.1"/></svg><svg width="24" height="24" viewBox="-2 -2 24 24" id="icon--burger" x="105" xmlns="http://www.w3.org/2000/svg"><path d="M0 0h20v4H0zm0 8h20v4H0zm20 8H0v4h20z" fill="#ff6a00"/></svg><svg width="20" height="20" viewBox="-2 -2 20 20" id="icon--burger-sm" x="129" xmlns="http://www.w3.org/2000/svg"><path d="M6.4 0H0v6.4h6.4zM16 0H9.6v6.4H16zM0 9.6h6.4V16H0zm16 0H9.6V16H16z" fill="#ed6c06"/></svg><svg viewBox="-2 -2 14 14" width="14" height="14" id="icon--close" x="149" xmlns="http://www.w3.org/2000/svg"><path fill="red" fill-rule="evenodd" clip-rule="evenodd" d="M6.2 5l3.7-3.7L8.7 0 5 3.7 1.3 0 .1 1.2 3.8 5 0 8.8 1.2 10 5 6.2 8.8 10 10 8.8 6.2 5z"/></svg><svg viewBox="-2 -2 27 27" width="27" height="27" id="icon--configurator" x="163" xmlns="http://www.w3.org/2000/svg"><path fill="#E7E8E9" stroke="#C4C4C4" d="M20 11.5c0 .4 0 .7-.1 1.1l2.4 1.8c.2.2.3.5.1.7l-2.3 3.8c-.1.2-.4.3-.7.2L16.7 18c-.6.4-1.2.8-1.9 1.1l-.5 2.9c0 .3-.3.5-.6.5H9.2c-.3 0-.5-.2-.6-.5l-.4-2.9c-.7-.3-1.3-.6-1.9-1.1l-2.8 1.1c-.3.1-.6 0-.7-.2L.5 15.1c-.1-.2-.1-.5.1-.7L3 12.6c0-.4-.1-.7-.1-1.1 0-.4 0-.7.1-1.1L.7 8.6c-.2-.2-.3-.5-.1-.7l2.3-3.8c.1-.2.4-.3.6-.2L6.3 5c.6-.4 1.2-.8 1.9-1.1L8.7 1c0-.3.3-.5.6-.5h4.5c.3 0 .5.2.6.5l.4 2.9c.7.3 1.3.6 1.9 1.1l2.8-1.1c.3-.1.6 0 .7.2l2.3 3.8c.1.2.1.5-.1.7L20 10.4v1.1zm-12.5 0c0 2.1 1.8 3.8 4 3.8s4-1.7 4-3.8c0-2.1-1.8-3.8-4-3.8 0 0 0 0 0 0-2.2 0-4 1.7-4 3.8h0z"/></svg><svg viewBox="-2 -2 27 27" width="27" height="27" id="icon--configurator-active" x="190" xmlns="http://www.w3.org/2000/svg"><path fill="#ED6C06" stroke="#ED6C06" d="M20 11.5c0 .4 0 .7-.1 1.1l2.4 1.8c.2.2.3.5.1.7l-2.3 3.8c-.1.2-.4.3-.7.2L16.7 18c-.6.4-1.2.8-1.9 1.1l-.5 2.9c0 .3-.3.5-.6.5H9.2c-.3 0-.5-.2-.6-.5l-.4-2.9c-.7-.3-1.3-.6-1.9-1.1l-2.8 1.1c-.3.1-.6 0-.7-.2L.5 15.1c-.1-.2-.1-.5.1-.7L3 12.6c0-.4-.1-.7-.1-1.1 0-.4 0-.7.1-1.1L.7 8.6c-.2-.2-.3-.5-.1-.7l2.3-3.8c.1-.2.4-.3.6-.2L6.3 5c.6-.4 1.2-.8 1.9-1.1L8.7 1c0-.3.3-.5.6-.5h4.5c.3 0 .5.2.6.5l.4 2.9c.7.3 1.3.6 1.9 1.1l2.8-1.1c.3-.1.6 0 .7.2l2.3 3.8c.1.2.1.5-.1.7L20 10.4v1.1zm-12.5 0c0 2.1 1.8 3.8 4 3.8s4-1.7 4-3.8c0-2.1-1.8-3.8-4-3.8 0 0 0 0 0 0-2.2 0-4 1.7-4 3.8h0z"/></svg><svg width="22.82" height="23.35" viewBox="-2 -2 22.82 23.35" id="icon--configurator-active-sm" x="217" xmlns="http://www.w3.org/2000/svg"><path d="M16.669 9.674a7.549 7.549 0 01-.068.948l2.041 1.6a.488.488 0 01.116.619l-1.934 3.348a.472.472 0 01-.59.213l-2.409-.967a7.433 7.433 0 01-1.635.948l-.368 2.564a.472.472 0 01-.474.406h-3.87a.472.472 0 01-.478-.41l-.364-2.564A7.066 7.066 0 015 15.431l-2.409.967A.486.486 0 012 16.189L.067 12.838a.488.488 0 01.116-.619l2.041-1.6a7.674 7.674 0 01-.068-.948 7.674 7.674 0 01.068-.948L.183 7.13a.477.477 0 01-.116-.619L2 3.163a.472.472 0 01.59-.213L5 3.918a7.433 7.433 0 011.635-.948L7 .406A.472.472 0 017.478 0h3.87a.472.472 0 01.474.406l.368 2.564a7.07 7.07 0 011.635.948l2.409-.967a.486.486 0 01.59.213l1.935 3.347a.488.488 0 01-.116.619L16.6 8.726a7.549 7.549 0 01.069.948zm-10.642 0a3.386 3.386 0 103.386-3.385 3.39 3.39 0 00-3.386 3.385z" fill="#ed6c06"/></svg><svg viewBox="-2 -2 14 24" width="14" height="24" id="icon--fileinput" x="240" xmlns="http://www.w3.org/2000/svg"><path fill="#009845" d="M8.6 4.5V15c0 2-1.6 3.6-3.6 3.6S1.4 17 1.4 15V3.6c0-1.3 1-2.3 2.3-2.3C5 1.3 6 2.3 6 3.6v9.5c0 .5-.4.9-.9.9s-.9-.4-.9-.9V4.5H2.7v8.6c0 1.3 1 2.3 2.3 2.3s2.3-1 2.3-2.3V3.6c0-2-1.6-3.6-3.6-3.6S0 1.6 0 3.6V15c0 2.8 2.2 5 5 5s5-2.2 5-5V4.5H8.6z"/></svg></svg>